<svg width="87" height="102" viewBox="0 0 87 102" fill="none" xmlns="http://www.w3.org/2000/svg">
<path fill-rule="evenodd" clip-rule="evenodd" d="M4.48226 6.60242H6.53745V4.75837C6.53745 2.73951 6.53841 2.73291 6.87266 2.73291C7.16482 2.73291 7.16528 2.7363 7.16528 4.73706V6.60242H9.22046L9.21904 4.76866C9.21756 2.83575 9.19262 2.57347 8.98981 2.35501C8.57419 1.90737 7.44024 1.80719 6.76086 2.15786L6.53745 2.27299V1H4.48226V6.60242ZM1.42816 2.12626L1 2.16228V2.84822H1.45674V4.40402C1.45674 6.58063 1.44005 6.55859 3.1266 6.59412L4.13976 6.61543V5.92282L3.83239 5.8839C3.44342 5.83469 3.45481 5.88639 3.45481 4.1694V2.84822H4.02552V2.16155L3.48334 2.12626L3.44923 1.40435H1.46232L1.42816 2.12626ZM11.4964 1.98231C10.1238 2.20247 9.88679 2.57444 9.91561 4.46255C9.93981 6.03989 10.0719 6.2635 11.1512 6.55417C12.8734 7.01827 14.451 6.42536 14.5458 5.27804C14.5971 4.65946 14.6584 4.69645 13.5869 4.69645H12.6569L12.6369 5.22102C12.6151 5.79377 12.5492 5.91036 12.2493 5.90866C11.9526 5.90666 11.9321 5.8543 11.9321 5.10074V4.40329H13.188C13.8788 4.40329 14.4798 4.38101 14.5236 4.35359C14.6577 4.26958 14.5597 3.24053 14.3818 2.86662C14.0565 2.18285 12.747 1.78147 11.4964 1.98231ZM12.4757 2.88103C12.5062 2.96233 12.5314 3.17025 12.5314 3.34289V3.65687H11.9035V3.30669C11.9035 2.8475 11.9669 2.73291 12.2208 2.73291C12.382 2.73291 12.4307 2.76106 12.4757 2.88103ZM16.1276 6.54485H22.2929V4.40771H16.1276V6.54485ZM24.4621 20.9264H30.6273V4.40771H24.4621V20.9264ZM32.8442 4.46552C32.8338 4.49736 32.8319 8.21408 32.8398 12.7247L32.8544 20.9264H38.9618V4.40771H35.9126C33.931 4.40771 32.8565 4.42805 32.8442 4.46552ZM46.2974 7.18207C45.0784 7.30671 44.1038 7.54109 43.2799 7.90773C41.463 8.71608 40.9029 9.67732 40.9029 11.9873V12.6103L46.5256 12.5805L46.5565 11.2809C46.5966 9.5884 46.6358 9.51395 47.4836 9.52375C48.2821 9.53307 48.5993 10.2543 48.437 11.6918C48.3448 12.5122 48.2314 12.5714 45.1554 13.4117C41.1251 14.5127 40.8351 14.8029 40.9185 17.6547C40.972 19.494 41.3256 20.1851 42.4441 20.635C44.5768 21.4929 46.9783 21.273 48.2388 20.1046C48.4426 19.9155 48.6122 19.7957 48.6159 19.8383C48.6196 19.881 48.6177 20.0639 48.6108 20.2451C48.6044 20.4264 48.6159 20.6538 48.6371 20.7506L48.6754 20.9264H54.4318V16.4069C54.4314 9.97653 54.376 9.53084 53.4715 8.67298C52.2309 7.49654 49.26 6.87917 46.2974 7.18207ZM59.3413 7.21022C57.7309 7.45979 56.8822 8.14205 56.506 9.49046C56.3658 9.99221 56.3451 16.2433 56.4811 16.8835C56.8384 18.5612 58.2252 19.3429 60.8254 19.3312C61.7917 19.3268 61.9392 19.3084 62.7663 19.088C63.0812 19.0043 63.5621 18.7996 63.9567 18.5811L64.3195 18.3805L64.2979 19.2925C64.2656 20.6184 64.0996 20.8645 63.2352 20.8674C62.6469 20.8696 62.3012 20.6421 62.2191 20.1986L62.1827 20.0022H56.3751L56.4083 20.2767C56.672 22.456 58.7766 23.3342 63.4514 23.2159C66.5772 23.1368 68.3351 22.6198 69.4923 21.4387C70.212 20.7043 70.1871 20.9862 70.1871 13.4917V7.3535H64.6437L64.5325 7.61336C64.4717 7.75634 64.3707 7.99266 64.3085 8.13866L64.1951 8.40409L63.971 8.22462C62.8834 7.35277 61.0347 6.94775 59.3413 7.21022ZM77.4087 7.21101C74.5226 7.52541 72.8592 8.59513 72.3834 10.4433C72.099 11.5465 72.1114 16.8101 72.401 17.8978C72.9634 20.0137 75.3175 21.1191 79.2639 21.1213C82.0476 21.1228 83.5519 20.6788 84.8188 19.4816C85.7667 18.586 86 17.9059 86 16.0366V15.2662H80.2989L80.2809 16.6378C80.2555 18.5612 80.1587 18.7471 79.1786 18.7562C78.2478 18.765 78.2127 18.6737 78.21 16.2191L78.2077 14.3709L86 14.3413V13.2283C86 10.965 85.7285 9.89596 84.9318 9.02539C83.6238 7.59545 80.5916 6.86422 77.4087 7.21101ZM1.53563 7.45441C1.55185 7.50997 1.86144 8.8941 2.22376 10.53C2.58636 12.1662 2.97386 13.9075 3.08497 14.3998C3.19631 14.8923 3.55716 16.5167 3.8873 18.0097C4.21721 19.5026 4.50066 20.7697 4.51711 20.8253C4.54519 20.9203 4.78336 20.9264 8.46917 20.9264H12.3912L12.4629 20.5365C12.5262 20.1915 12.6398 19.6437 13.0464 17.7208C13.1069 17.435 13.2868 16.5644 13.446 15.7859C13.6055 15.0076 13.7745 14.189 13.8217 13.9666C13.994 13.1569 14.131 12.4972 14.3861 11.2519C14.5291 10.5533 14.6705 9.87738 14.7005 9.75026C14.8293 9.20511 15.1573 7.56143 15.1573 7.46197C15.1573 7.35719 15.0631 7.3535 12.5028 7.3535C11.0428 7.3535 9.8483 7.36185 9.8483 7.37214C9.8483 7.38243 9.80865 7.65864 9.76047 7.98606C9.71206 8.31348 9.64862 8.76656 9.61981 8.99259C9.46467 10.2075 9.37731 10.9316 9.22166 12.2918C8.99534 14.2707 8.75455 16.1934 8.65335 16.8286C8.60277 17.1467 8.53546 17.353 8.53546 17.1893C8.53546 17.1563 8.48175 16.8206 8.41638 16.4432C8.35105 16.0658 8.20873 15.2373 8.1003 14.6021C7.99186 13.9666 7.82944 13.0178 7.7394 12.4938C7.64913 11.9697 7.46928 10.917 7.33978 10.1546C6.95473 7.88836 6.87653 7.45247 6.84555 7.40174C6.77852 7.29182 1.50345 7.34418 1.53563 7.45441ZM16.1138 14.0425C16.1058 17.722 16.1075 20.7763 16.1177 20.8294C16.1346 20.9188 16.3789 20.9264 19.2148 20.9264H22.2934L22.2643 7.38219L16.1286 7.35229L16.1138 14.0425ZM63.9037 9.65184C64.1854 9.86437 64.1978 10.0265 64.1803 13.2735C64.1619 16.7096 64.1693 16.6494 63.7391 16.8691C63.2624 17.1122 62.699 16.9981 62.5095 16.62C62.3662 16.3342 62.3293 10.4587 62.4685 10.062C62.652 9.53943 63.4519 9.31044 63.9037 9.65184ZM79.487 9.56588C79.8817 9.70571 80.0347 10.3172 79.9955 11.5985L79.9775 12.1761H78.2077L78.2206 11.116C78.2353 9.85704 78.2856 9.68144 78.6645 9.56782C78.9578 9.47969 79.2422 9.4792 79.487 9.56588ZM48.4942 15.9193C48.4923 18.5825 48.4306 18.7635 47.5302 18.7559C46.6869 18.7488 46.5828 18.5718 46.5828 17.1433C46.5828 15.8934 46.6657 15.6333 47.1978 15.219C47.5606 14.9361 48.3905 14.4566 48.4509 14.4946C48.4753 14.5098 48.4947 15.1509 48.4942 15.9193ZM50.2987 22.818C52.2733 25.8333 53.0118 28.8332 52.1202 30.2179C51.9049 30.5526 51.7546 30.7035 51.1783 31.1617C48.3706 33.3941 47.7833 36.5667 49.502 40.2141C50.0239 41.321 51.0709 42.8286 51.2161 42.6815C51.2341 42.6634 51.217 42.2512 51.1788 41.7653C50.9381 38.7257 51.6702 36.7497 53.8919 34.4417C54.9219 33.3718 55.2672 32.9313 55.5913 32.2757C56.9933 29.4381 55.2423 26.0162 50.8819 23.0714C50.2028 22.6128 50.1488 22.5892 50.2987 22.818ZM48.349 27.6122C43.9226 30.6545 40.9236 34.3766 40.3579 37.5318C40.0171 39.4317 40.4045 40.7695 41.9558 43.0478C45.8705 48.7959 45.7474 50.6221 41.1596 54.8261L40.7028 55.2444L41.0453 55.2056C47.2775 54.4944 50.9704 52.4974 50.9764 49.834C50.9796 48.489 50.4218 47.3746 48.3029 44.4915C46.7976 42.4443 45.953 40.9527 45.474 39.4956C44.2518 35.7804 45.3633 31.8322 48.9091 27.2941C49.0069 27.1689 48.9317 27.2118 48.349 27.6122ZM36.296 38.8723C33.558 42.2288 31.5882 46.0913 31.5752 48.13C31.5568 51.0337 32.7837 52.8346 35.1371 53.3576C37.8876 53.9689 40.1813 53.6584 40.9185 52.5743C41.9701 51.0289 40.6069 47.4236 38.4203 45.9666C37.3798 45.2729 36.8497 44.4037 36.4976 42.8117C36.3233 42.0239 36.3022 39.7838 36.4627 39.0643C36.5806 38.5349 36.5758 38.5292 36.296 38.8723ZM54.2036 46.1107C52.6218 46.2614 52.6319 46.9194 54.258 49.5743C55.725 51.969 55.9334 52.7426 55.483 54.1245C54.5526 56.9804 50.6592 58.1172 41.759 58.1323C34.4293 58.1444 29.8131 56.9465 27.4665 54.4229C25.5556 52.3673 26.0007 50.1518 28.9364 47.1052C29.3419 46.6839 29.6587 46.3401 29.6403 46.3401C29.3791 46.3401 27.2881 47.3268 26.3514 47.8915C21.7459 50.6706 20.0431 55.116 22.305 58.4562C25.1017 62.5863 35.8629 66.0723 43.4146 65.2945C47.526 64.8714 51.3558 63.9713 53.7504 62.8653C54.1566 62.6777 54.489 62.5324 54.489 62.5421C54.489 62.5609 53.3747 63.3084 52.9192 63.5947C51.2009 64.6746 48.0691 66.0862 46.4693 66.5027C46.3744 66.5269 45.9378 66.6407 45.4984 66.7545C39.8786 68.2133 31.9118 67.1147 26.8883 64.188C25.8388 63.5766 24.6942 62.7491 24.2909 62.3103C23.9 61.8847 23.8775 61.9931 24.1556 62.967C25.5031 67.6861 30.2098 71.1128 36.8497 72.2072C38.8016 72.5293 39.686 72.5904 42.3583 72.5904C44.7967 72.5904 45.1651 72.5704 46.6399 72.3561C50.555 71.7877 53.6061 70.4627 56.0874 68.2533C60.5787 64.2545 62.4602 57.1693 60.6184 51.1911C59.5267 47.6488 57.2224 45.8238 54.2036 46.1107ZM62.3334 51.7741C62.3726 52.1711 62.4514 52.8594 62.5377 53.5598C62.5667 53.7976 62.622 54.2952 62.6608 54.6651L62.7304 55.3382L63.3334 55.3612C64.8829 55.4205 65.5542 56.4489 65.3808 58.4979C65.1909 60.7413 63.8576 61.8853 60.872 62.3665C60.6719 62.3986 60.6567 62.4168 60.5695 62.7303C60.4501 63.1607 60.2657 63.6353 60.1011 63.938C59.9218 64.2667 59.9185 64.2636 60.3542 64.217C64.4583 63.7751 67.4947 61.4132 68.3314 58.0125C69.2913 54.11 67.3162 51.6354 63.0881 51.4405L62.2961 51.4036L62.3334 51.7741ZM23.3774 68.0971C19.8538 68.3102 16.9743 69.5329 15.9889 71.2339C14.0543 74.5746 17.0769 77.8331 24.4621 80.3694C25.4851 80.7211 27.4501 81.3034 28.3158 81.5128C28.5826 81.577 29.0127 81.6805 29.2716 81.7435C31.2298 82.2156 34.6152 82.7955 36.6784 83.0128C37.008 83.0479 37.3933 83.0891 37.5347 83.1048C46.8119 84.1478 57.293 82.2804 63.5837 78.4638C70.0068 74.5674 67.6975 70.568 57.7429 68.3459C57.4447 68.2793 57.0883 68.1988 56.9509 68.1673C56.814 68.1353 56.6973 68.1171 56.6913 68.1262C56.6863 68.1352 56.6517 68.2642 56.6148 68.4125C55.8721 71.3798 51.5919 73.4469 45.2126 73.9203C36.3523 74.5771 28.4545 72.4003 25.6294 68.5233L25.2898 68.0572L24.4906 68.0675C24.0511 68.0735 23.5503 68.0868 23.3774 68.0971ZM54.1367 74.2992C54.6277 76.4517 52.5195 78.3155 48.7219 79.0861C45.2015 79.7998 39.2692 79.7986 35.7937 79.0825C32.0488 78.3113 30.0474 76.7992 30.0474 74.7405C30.0474 74.1261 30.0564 74.1243 30.7123 74.6225C31.4614 75.1909 32.1396 75.6128 33.0821 76.0952C37.1007 78.1539 41.7576 78.7604 46.497 77.8422C48.8759 77.3809 51.8436 75.9469 53.5185 74.4481C54.1008 73.9276 54.0547 73.9384 54.1367 74.2992ZM59.0126 86.221L61.9784 86.2519L62.8433 85.7682C64.3292 84.9359 66.7326 83.5782 66.7575 83.5564C66.7708 83.5449 65.6114 83.5358 64.1817 83.5358H61.5824L59.0126 86.221ZM49.8934 84.2664C49.7994 84.2773 49.4831 84.3142 49.1913 84.3487C47.1106 84.5927 46.4993 85.218 46.4975 87.1023L46.497 87.5206H45.2412V89.658H46.497V100.747H52.4909V89.658H53.9182V87.523L51.3853 87.4922L51.4001 87.1187C51.43 86.3905 51.5158 86.3433 52.8735 86.316L53.9182 86.2955V84.2289L51.9916 84.2374C50.9321 84.2422 49.9879 84.2549 49.8934 84.2664ZM21.1798 87.0025C18.6981 87.1865 16.593 88.1822 16.009 89.4486C15.6789 90.1641 15.659 90.3644 15.6305 93.2839C15.5886 97.5453 15.7401 98.3407 16.7949 99.4006C18.7308 101.345 24.6438 101.566 27.2574 99.7917C28.599 98.8813 29.086 97.7336 29.086 95.483V95.2027H23.7294L23.7105 96.5169C23.6882 98.0641 23.6263 98.2971 23.1839 98.4999C22.503 98.8129 21.8238 98.4606 21.665 97.7118C21.5682 97.2554 21.6137 89.9782 21.7149 89.7282C21.8553 89.3814 22.4313 89.2167 22.8876 89.3929C23.3421 89.5684 23.4346 89.8971 23.4346 91.3359V92.3148H29.086V92.0672C29.086 91.6998 28.9325 90.543 28.8343 90.1701C28.2493 87.9504 25.233 86.7022 21.1798 87.0025ZM36.4501 86.9819C34.3204 87.0751 32.3173 87.7876 31.4331 88.7664C30.8638 89.3965 30.6293 90.224 30.628 91.6071L30.6273 92.4304H36.2042L36.2391 91.2028C36.2865 89.5315 36.3293 89.4231 36.9778 89.3336C37.83 89.2149 38.1626 89.6852 38.1626 91.0097C38.1626 92.2663 38.0536 92.3547 35.708 93.0054C30.7268 94.3862 30.6341 94.4618 30.6293 97.1482C30.6252 99.5235 31.094 100.24 32.979 100.739C34.9642 101.265 36.9826 100.908 38.0343 99.8449L38.3339 99.5417V100.747H44.1563L44.1559 96.3722C44.155 89.8753 44.0835 89.3166 43.1481 88.4492C41.9508 87.339 39.6761 86.8408 36.4501 86.9819ZM60.4543 87C57.3764 87.2555 55.5825 88.3463 55.086 90.2645C54.844 91.2004 54.8186 96.4007 55.051 97.4951C55.5503 99.8455 58.2888 101.117 62.5095 100.957C64.9479 100.865 66.402 100.383 67.5403 99.2893C68.4808 98.3849 68.7012 97.7269 68.7026 95.8232L68.703 95.0871H63.0019L62.9839 96.4588C62.959 98.3607 62.8447 98.5816 61.8816 98.5816C60.9577 98.5816 60.9218 98.4908 60.8922 96.0841L60.8687 94.2215L68.6744 94.1918L68.6915 93.1235C68.7293 90.7821 68.4329 89.6677 67.5306 88.7567C66.2282 87.4419 63.4464 86.7513 60.4543 87ZM62.2214 89.3929C62.5884 89.5484 62.7364 90.178 62.6986 91.4195L62.6806 91.997H60.9111L60.9236 90.937C60.9383 89.678 60.9886 89.5024 61.368 89.3886C61.682 89.2942 61.9918 89.296 62.2214 89.3929ZM38.0909 98.0853C37.9014 98.7457 36.7055 98.8086 36.3983 98.1742C36.2078 97.7802 36.2049 96.3698 36.3932 95.71C36.5053 95.3171 36.8037 95.0478 37.7 94.5308L38.134 94.2802L38.149 96.0556C38.1599 97.3637 38.1446 97.8976 38.0909 98.0853Z" fill="black" />
</svg>
