<svg width="100" viewBox="0 0 100 130" fill="none" xmlns="http://www.w3.org/2000/svg">
<g clip-path="url(#clip0_81_1336)">
<path fill-rule="evenodd" clip-rule="evenodd" d="M0 0.0813022C0 0.153417 5.58824 0.162604 49.941 0.162604H99.8819V129.838H49.941C5.58824 129.838 0 129.847 0 129.919C0 129.991 5.59476 130 50 130H100V0H50C5.59476 0 0 0.00918663 0 0.0813022ZM10.849 23.5082H12.9718V21.7788C12.9718 19.8855 12.9728 19.8793 13.318 19.8793C13.6198 19.8793 13.6202 19.8825 13.6202 21.7588V23.5082H15.743L15.7415 21.7885C15.74 19.9757 15.7142 19.7297 15.5048 19.5249C15.0755 19.1051 13.9042 19.0111 13.2025 19.34L12.9718 19.4479V18.2541H10.849V23.5082ZM7.69448 19.3103L7.25224 19.3441V19.9874H7.724V21.4465C7.724 23.4878 7.70676 23.4671 9.44876 23.5004L10.4952 23.5204V22.8709L10.1778 22.8344C9.776 22.7882 9.78776 22.8367 9.78776 21.2264V19.9874H10.3772V19.3434L9.81724 19.3103L9.782 18.6333H7.72976L7.69448 19.3103ZM18.0938 19.1753C16.676 19.3818 16.4312 19.7307 16.461 21.5014C16.486 22.9807 16.6225 23.1904 17.7372 23.463C19.516 23.8982 21.1455 23.3422 21.2435 22.2662C21.2965 21.686 21.3598 21.7207 20.253 21.7207H19.2925L19.2718 22.2127C19.2492 22.7498 19.1812 22.8592 18.8715 22.8576C18.565 22.8557 18.5438 22.8066 18.5438 22.0999V21.4458H19.841C20.5545 21.4458 21.1752 21.4249 21.2205 21.3992C21.359 21.3204 21.2578 20.3553 21.074 20.0047C20.738 19.3634 19.3855 18.987 18.0938 19.1753ZM19.1052 20.0182C19.1368 20.0944 19.1628 20.2894 19.1628 20.4513V20.7458H18.5142V20.4174C18.5142 19.9867 18.5798 19.8793 18.842 19.8793C19.0085 19.8793 19.0588 19.9057 19.1052 20.0182ZM22.8772 23.4542H29.2452V21.4499H22.8772V23.4542ZM31.4858 36.9416H37.8538V21.4499H31.4858V36.9416ZM40.1435 21.5042C40.1328 21.534 40.1308 25.0197 40.139 29.2499L40.154 36.9416H46.4622V21.4499H43.3128C41.266 21.4499 40.1562 21.469 40.1435 21.5042ZM54.039 24.0518C52.78 24.1687 51.7733 24.3885 50.9224 24.7324C49.0457 25.4904 48.4671 26.3919 48.4671 28.5583V29.1426L54.2748 29.1146L54.3067 27.8958C54.3481 26.3085 54.3886 26.2387 55.2643 26.2479C56.089 26.2567 56.4167 26.933 56.2491 28.2811C56.1538 29.0505 56.0367 29.1061 52.8595 29.8941C48.6967 30.9267 48.3971 31.1988 48.4833 33.8733C48.5386 35.5983 48.9038 36.2464 50.059 36.6683C52.2619 37.4729 54.7424 37.2666 56.0443 36.1709C56.2548 35.9936 56.43 35.8812 56.4338 35.9212C56.4376 35.9612 56.4357 36.1327 56.4286 36.3027C56.4219 36.4727 56.4338 36.686 56.4557 36.7767L56.4952 36.9416H62.441V32.7031C62.4405 26.6725 62.3833 26.2546 61.449 25.45C60.1676 24.3467 57.099 23.7677 54.039 24.0518ZM67.5119 24.0782C65.8486 24.3123 64.9719 24.9521 64.5833 26.2167C64.4386 26.6872 64.4171 32.5497 64.5576 33.1501C64.9267 34.7235 66.359 35.4566 69.0448 35.4456C70.0429 35.4415 70.1952 35.4242 71.0495 35.2175C71.3748 35.139 71.8714 34.947 72.279 34.7421L72.6538 34.554L72.6314 35.4093C72.5981 36.6527 72.4267 36.8836 71.5338 36.8863C70.9262 36.8884 70.569 36.675 70.4843 36.259L70.4467 36.0749H64.4481L64.4824 36.3323C64.7548 38.3761 66.9286 39.1997 71.7571 39.0888C74.9857 39.0146 76.8014 38.5298 77.9967 37.4221C78.74 36.7333 78.7143 36.9977 78.7143 29.9692V24.2126H72.9886L72.8738 24.4563C72.811 24.5904 72.7067 24.812 72.6424 24.9489L72.5252 25.1979L72.2938 25.0295C71.1705 24.2119 69.2609 23.8321 67.5119 24.0782ZM86.1733 24.079C83.1924 24.3738 81.4743 25.377 80.9829 27.1103C80.689 28.1449 80.7019 33.0812 81.001 34.1013C81.5819 36.0857 84.0133 37.1224 88.0895 37.1244C90.9648 37.1258 92.5186 36.7094 93.8271 35.5866C94.8062 34.7467 95.0471 34.1089 95.0471 32.3559V31.6334H89.1586L89.14 32.9197C89.1138 34.7235 89.0138 34.8978 88.0014 34.9063C87.04 34.9146 87.0038 34.8289 87.001 32.527L86.9986 30.7937L95.0471 30.7659V29.7221C95.0471 27.5995 94.7667 26.597 93.9438 25.7805C92.5929 24.4395 89.461 23.7537 86.1733 24.079ZM7.80548 24.3072C7.82224 24.3593 8.142 25.6574 8.51624 27.1916C8.89076 28.726 9.291 30.3591 9.40576 30.8208C9.52076 31.2827 9.89348 32.806 10.2345 34.2063C10.5752 35.6064 10.868 36.7947 10.885 36.8468C10.914 36.9359 11.16 36.9416 14.967 36.9416H19.018L19.092 36.576C19.1575 36.2524 19.2748 35.7386 19.6948 33.9353C19.7572 33.6673 19.943 32.8508 20.1075 32.1207C20.2722 31.3908 20.4468 30.6231 20.4955 30.4145C20.6735 29.6552 20.815 29.0365 21.0785 27.8687C21.2262 27.2134 21.3722 26.5796 21.4032 26.4603C21.5362 25.9491 21.875 24.4076 21.875 24.3143C21.875 24.216 21.7778 24.2126 19.1332 24.2126C17.6252 24.2126 16.3915 24.2204 16.3915 24.2301C16.3915 24.2397 16.3505 24.4988 16.3008 24.8058C16.2508 25.1129 16.1852 25.5378 16.1555 25.7498C15.9952 26.8891 15.905 27.5682 15.7442 28.8438C15.5105 30.6998 15.2618 32.5029 15.1572 33.0986C15.105 33.3969 15.0355 33.5904 15.0355 33.4369C15.0355 33.4059 14.98 33.0911 14.9125 32.7371C14.845 32.3832 14.698 31.6062 14.586 31.0105C14.474 30.4145 14.3062 29.5248 14.2132 29.0333C14.12 28.5418 13.9342 27.5545 13.8005 26.8395C13.4028 24.7142 13.322 24.3054 13.29 24.2578C13.2208 24.1547 7.77224 24.2038 7.80548 24.3072ZM22.863 30.4857C22.8548 33.9365 22.8565 36.8008 22.867 36.8507C22.8845 36.9345 23.1368 36.9416 26.066 36.9416H29.2458L29.2158 24.2395L22.8782 24.2115L22.863 30.4857ZM72.2243 26.368C72.5152 26.5673 72.5281 26.7194 72.51 29.7646C72.491 32.987 72.4986 32.9305 72.0543 33.1365C71.5619 33.3646 70.98 33.2576 70.7843 32.9029C70.6362 32.6349 70.5981 27.1248 70.7419 26.7527C70.9314 26.2626 71.7576 26.0479 72.2243 26.368ZM88.32 26.2874C88.7276 26.4186 88.8857 26.992 88.8452 28.1937L88.8267 28.7354H86.9986L87.0119 27.7412C87.0271 26.5605 87.079 26.3958 87.4705 26.2892C87.7733 26.2066 88.0671 26.2061 88.32 26.2874ZM56.3081 32.2458C56.3062 34.7435 56.2424 34.9132 55.3124 34.9061C54.4414 34.8994 54.3338 34.7334 54.3338 33.3938C54.3338 32.2216 54.4195 31.9776 54.969 31.589C55.3438 31.3238 56.201 30.8741 56.2633 30.9097C56.2886 30.9239 56.3086 31.5252 56.3081 32.2458ZM58.1719 38.7156C60.2114 41.5435 60.9743 44.3568 60.0533 45.6554C59.831 45.9694 59.6757 46.1108 59.0805 46.5406C56.1805 48.6342 55.5738 51.6095 57.349 55.0302C57.8881 56.0683 58.9695 57.4821 59.1195 57.3442C59.1381 57.3272 59.1205 56.9406 59.081 56.4849C58.8324 53.6343 59.5886 51.7811 61.8833 49.6167C62.9471 48.6133 63.3038 48.2001 63.6386 47.5853C65.0867 44.9241 63.2781 41.715 58.7743 38.9533C58.0729 38.5231 58.0171 38.5011 58.1719 38.7156ZM56.1581 43.2118C51.5862 46.0649 48.4886 49.5556 47.9043 52.5147C47.5522 54.2964 47.9524 55.551 49.5548 57.6876C53.5981 63.0784 53.471 64.7911 48.7324 68.7337L48.2605 69.1259L48.6143 69.0896C55.0514 68.4226 58.8657 66.5498 58.8719 64.052C58.8752 62.7906 58.299 61.7455 56.1105 59.0416C54.5557 57.1217 53.6833 55.7228 53.1886 54.3563C51.9262 50.8721 53.0743 47.1694 56.7367 42.9135C56.8376 42.7961 56.76 42.8363 56.1581 43.2118ZM43.7088 53.7718C40.8808 56.9196 38.8462 60.542 38.8328 62.4539C38.8138 65.1771 40.081 66.866 42.5118 67.3565C45.3528 67.9298 47.7219 67.6386 48.4833 66.6219C49.5695 65.1726 48.1614 61.7914 45.903 60.425C44.8282 59.7745 44.2808 58.9593 43.917 57.4662C43.737 56.7274 43.7152 54.6266 43.881 53.9519C44.0028 53.4553 43.9978 53.45 43.7088 53.7718ZM62.2052 60.5601C60.5714 60.7015 60.5819 61.3186 62.2614 63.8084C63.7767 66.0542 63.9919 66.7797 63.5267 68.0757C62.5657 70.7541 58.5443 71.8202 49.3514 71.8344C41.7808 71.8457 37.0128 70.7223 34.589 68.3556C32.6152 66.4277 33.075 64.35 36.1072 61.4928C36.526 61.0977 36.8532 60.7753 36.8342 60.7753C36.5645 60.7753 34.4048 61.7006 33.4372 62.2303C28.6802 64.8365 26.9215 69.0056 29.2578 72.1381C32.1465 76.0114 43.2615 79.2807 51.0614 78.5512C55.3081 78.1544 59.2638 77.3103 61.7371 76.2731C62.1567 76.0971 62.5 75.9609 62.5 75.97C62.5 75.9876 61.349 76.6887 60.8786 76.9572C59.1038 77.9699 55.869 79.2938 54.2167 79.6843C54.1186 79.707 53.6676 79.8138 53.2138 79.9205C47.4092 81.2886 39.1805 80.2583 33.9918 77.5135C32.9078 76.9401 31.7255 76.1641 31.309 75.7525C30.9052 75.3534 30.882 75.4551 31.1692 76.3685C32.561 80.7942 37.4225 84.0078 44.2808 85.0342C46.2968 85.3362 47.2102 85.3935 49.9705 85.3935C52.489 85.3935 52.8695 85.3748 54.3929 85.1738C58.4367 84.6408 61.5881 83.3981 64.1509 81.3261C68.79 77.5759 70.7333 70.9312 68.831 65.3247C67.7033 62.0026 65.3233 60.291 62.2052 60.5601ZM70.6024 65.8714C70.6429 66.2438 70.7243 66.8893 70.8133 67.5461C70.8433 67.7692 70.9005 68.2358 70.9405 68.5827L71.0124 69.2139L71.6352 69.2355C73.2357 69.2911 73.929 70.2556 73.75 72.1772C73.5538 74.2811 72.1767 75.354 69.0929 75.8053C68.8862 75.8354 68.8705 75.8524 68.7805 76.1465C68.6571 76.5501 68.4667 76.9952 68.2967 77.279C68.1114 77.5873 68.1081 77.5845 68.5581 77.5407C72.7971 77.1263 75.9333 74.9112 76.7976 71.722C77.789 68.0621 75.749 65.7414 71.3819 65.5586L70.5638 65.524L70.6024 65.8714ZM30.3655 81.1796C26.726 81.3794 23.7518 82.5262 22.734 84.1214C20.7358 87.2544 23.8578 90.3103 31.4858 92.6889C32.5425 93.0187 34.572 93.5648 35.4662 93.7612C35.7418 93.8214 36.186 93.9185 36.4535 93.9775C38.476 94.4203 41.9728 94.9641 44.1038 95.1679C44.4442 95.2009 44.8422 95.2395 44.9882 95.2542C54.5705 96.2324 65.3962 94.481 71.8938 90.9018C78.5281 87.2476 76.1429 83.4969 65.861 81.4129C65.5529 81.3505 65.1848 81.275 65.0429 81.2455C64.9014 81.2154 64.781 81.1983 64.7748 81.2069C64.7695 81.2154 64.7338 81.3363 64.6957 81.4754C63.9286 84.2582 59.5076 86.1968 52.9186 86.6407C43.767 87.2567 35.6095 85.2153 32.6915 81.5793L32.3408 81.1421L31.5152 81.1518C31.0612 81.1575 30.544 81.17 30.3655 81.1796ZM62.1362 86.9961C62.6433 89.0148 60.4657 90.7627 56.5433 91.4854C52.9071 92.1547 46.7798 92.1535 43.19 91.482C39.322 90.7587 37.2548 89.3407 37.2548 87.41C37.2548 86.8338 37.264 86.8321 37.9415 87.2993C38.7152 87.8323 39.4158 88.228 40.3892 88.6804C44.54 90.6111 49.35 91.18 54.2452 90.3188C56.7024 89.8862 59.7676 88.5414 61.4976 87.1358C62.099 86.6476 62.0514 86.6578 62.1362 86.9961ZM67.1724 98.1767L70.2357 98.2056L71.1291 97.7521C72.6638 96.9715 75.1462 95.6982 75.1719 95.6777C75.1857 95.6669 73.9881 95.6584 72.5114 95.6584H69.8267L67.1724 98.1767ZM57.7533 96.3436C57.6562 96.3538 57.3295 96.3885 57.0281 96.4208C54.879 96.6496 54.2476 97.236 54.2457 99.0032L54.2452 99.3955H52.9481V101.4H54.2452V111.8H60.4362V101.4H61.9105V99.3978L59.2943 99.3688L59.3095 99.0186C59.3405 98.3356 59.4291 98.2914 60.8314 98.2658L61.9105 98.2465V96.3084L59.9205 96.3164C58.8262 96.3209 57.851 96.3328 57.7533 96.3436ZM28.0955 98.9096C25.5322 99.0821 23.358 100.016 22.7548 101.204C22.4138 101.875 22.3932 102.062 22.3638 104.8C22.3205 108.797 22.477 109.543 23.5665 110.537C25.566 112.36 31.6735 112.568 34.373 110.904C35.7588 110.05 36.2618 108.973 36.2618 106.863V106.6H30.729L30.7095 107.832C30.6865 109.283 30.6225 109.502 30.1655 109.692C29.4622 109.986 28.7608 109.655 28.5968 108.953C28.4968 108.525 28.5438 101.7 28.6482 101.466C28.7932 101.141 29.3882 100.986 29.8595 101.151C30.329 101.316 30.4245 101.624 30.4245 102.974V103.892H36.2618V103.659C36.2618 103.315 36.1032 102.23 36.0018 101.88C35.3975 99.7986 32.282 98.628 28.0955 98.9096ZM43.868 98.8903C41.6682 98.9777 39.5992 99.6459 38.686 100.564C38.098 101.155 37.8558 101.931 37.8545 103.228L37.8538 104H43.614L43.65 102.849C43.699 101.281 43.7432 101.18 44.413 101.096C45.2932 100.984 45.6368 101.426 45.6368 102.668C45.6368 103.846 45.5242 103.929 43.1015 104.539C37.9565 105.834 37.8608 105.905 37.8558 108.425C37.8515 110.652 38.3358 111.324 40.2828 111.792C42.3332 112.285 44.418 111.95 45.5042 110.954L45.8138 110.669V111.8H51.8276L51.8271 107.697C51.8262 101.604 51.7524 101.08 50.7862 100.266C49.5495 99.2252 47.2 98.758 43.868 98.8903ZM68.6614 98.9073C65.4824 99.1469 63.6295 100.17 63.1167 101.969C62.8667 102.846 62.8405 107.723 63.0805 108.75C63.5962 110.954 66.4248 112.146 70.7843 111.996C73.3029 111.91 74.8048 111.458 75.9805 110.432C76.9519 109.584 77.1795 108.967 77.181 107.182L77.1814 106.492H71.2929L71.2743 107.778C71.2486 109.562 71.1305 109.769 70.1357 109.769C69.1814 109.769 69.1443 109.684 69.1138 107.427L69.0895 105.68L77.1519 105.652L77.1695 104.65C77.2086 102.454 76.9024 101.409 75.9705 100.555C74.6252 99.3217 71.7519 98.674 68.6614 98.9073ZM70.4867 101.151C70.8657 101.297 71.0186 101.888 70.9795 103.052L70.961 103.594H69.1333L69.1462 102.6C69.1614 101.419 69.2133 101.254 69.6052 101.147C69.9295 101.059 70.2495 101.061 70.4867 101.151ZM45.5628 109.303C45.367 109.923 44.1318 109.982 43.8145 109.387C43.6178 109.017 43.6148 107.694 43.8092 107.076C43.925 106.707 44.2332 106.455 45.159 105.97L45.6072 105.735L45.6228 107.4C45.634 108.627 45.6182 109.127 45.5628 109.303Z" fill="black" stroke="white" stroke-width="0.4"/>
</g>
<defs>
<clipPath id="clip0_81_1336">
<rect width="100" height="130" fill="white"/>
</clipPath>
</defs>
</svg>
