<svg width="150" height="172" viewBox="0 0 150 172" fill="none" xmlns="http://www.w3.org/2000/svg">
<path fill-rule="evenodd" clip-rule="evenodd" d="M6.14517 10.5241H9.77196V7.38923C9.77196 3.95716 9.77367 3.94595 10.3635 3.94595C10.8791 3.94595 10.8799 3.95171 10.8799 7.35301V10.5241H14.5067L14.5042 7.40672C14.5016 4.12078 14.4576 3.6749 14.0997 3.30352C13.3662 2.54254 11.3651 2.37223 10.1662 2.96836L9.77196 3.16408V1H6.14517V10.5241ZM0.755576 2.91464L0 2.97587V4.14198H0.806018V6.78683C0.806018 10.4871 0.776566 10.4496 3.75282 10.51L5.54076 10.5462V9.3688L4.99834 9.30263C4.31192 9.21897 4.33201 9.30686 4.33201 6.38797V4.14198H5.33915V2.97463L4.38237 2.91464L4.32217 1.6874H0.815863L0.755576 2.91464ZM18.523 2.66993C16.1008 3.0442 15.6826 3.67654 15.7334 6.88634C15.7761 9.56782 16.0093 9.94795 17.9139 10.4421C20.953 11.2311 23.737 10.2231 23.9044 8.27266C23.995 7.22108 24.1031 7.28396 22.2122 7.28396H20.5711L20.5357 8.17573C20.4972 9.14941 20.381 9.3476 19.8518 9.34472C19.3282 9.34133 19.2919 9.25231 19.2919 7.97126V6.78559H21.5082C22.7272 6.78559 23.7878 6.74772 23.8652 6.70111C24.1018 6.55828 23.9288 4.8089 23.6149 4.17326C23.0408 3.01085 20.7301 2.3285 18.523 2.66993ZM20.2512 4.19775C20.305 4.33595 20.3495 4.68943 20.3495 4.98291V5.51668H19.2414V4.92138C19.2414 4.14075 19.3534 3.94595 19.8014 3.94595C20.0859 3.94595 20.1718 3.9938 20.2512 4.19775ZM26.6957 10.4262H37.5756V6.79311H26.6957V10.4262ZM41.4036 34.8749H52.2835V6.79311H41.4036V34.8749ZM56.1956 6.89138C56.1773 6.94551 56.1739 13.2639 56.1879 20.9321L56.2136 34.8749H66.9914V6.79311H61.6104C58.1134 6.79311 56.2174 6.82768 56.1956 6.89138ZM79.9366 11.5095C77.7854 11.7214 76.0655 12.1199 74.6116 12.7431C71.4053 14.1173 70.4168 15.7514 70.4168 19.6785V20.7376L80.3393 20.6868L80.3938 18.4775C80.4646 15.6003 80.5337 15.4737 82.0299 15.4904C83.439 15.5062 83.9988 16.7322 83.7124 19.176C83.5497 20.5707 83.3495 20.6714 77.9213 22.0998C70.8089 23.9716 70.2972 24.4649 70.4445 29.3129C70.5388 32.4399 71.1629 33.6147 73.1366 34.3795C76.9003 35.8379 81.1382 35.464 83.3626 33.4778C83.7222 33.1564 84.0216 32.9527 84.0281 33.0252C84.0346 33.0976 84.0313 33.4086 84.0191 33.7167C84.0077 34.0248 84.0281 34.4115 84.0655 34.576L84.133 34.8749H94.2914V27.1917C94.2906 16.2601 94.193 15.5024 92.5967 14.0441C90.4074 12.0441 85.1646 10.9946 79.9366 11.5095ZM102.955 11.5574C100.113 11.9816 98.6156 13.1415 97.9518 15.4338C97.7044 16.2868 97.6678 26.9137 97.9078 28.0019C98.5383 30.8541 100.986 32.183 105.574 32.1631C107.279 32.1555 107.54 32.1243 108.999 31.7496C109.555 31.6073 110.404 31.2592 111.1 30.8879L111.74 30.5468L111.702 32.0972C111.645 34.3512 111.352 34.7696 109.827 34.7746C108.789 34.7784 108.179 34.3916 108.034 33.6376L107.969 33.3037H97.7207L97.7793 33.7704C98.2446 37.4752 101.959 38.9681 110.208 38.767C115.725 38.6325 118.827 37.7537 120.869 35.7459C122.139 34.4973 122.095 34.9765 122.095 22.236V11.8009H112.312L112.116 12.2427C112.009 12.4858 111.831 12.8875 111.721 13.1357L111.521 13.587L111.125 13.2818C109.206 11.7997 105.944 11.1112 102.955 11.5574ZM134.839 11.5587C129.746 12.0932 126.81 13.9117 125.971 17.0536C125.469 18.9291 125.491 27.8771 126.002 29.7263C126.994 33.3233 131.148 35.2025 138.113 35.2062C143.025 35.2088 145.68 34.454 147.916 32.4187C149.588 30.8962 150 29.7401 150 26.5623V25.2526H139.939L139.907 27.5843C139.863 30.8541 139.692 31.1701 137.962 31.1855C136.32 31.2005 136.258 31.0452 136.253 26.8724L136.249 23.7305L150 23.6801V21.788C150 17.9404 149.521 16.1231 148.115 14.6432C145.807 12.2123 140.456 10.9692 134.839 11.5587ZM0.945223 11.9725C0.973861 12.067 1.52018 14.42 2.15958 17.2011C2.79946 19.9825 3.48328 22.9428 3.67935 23.7796C3.87584 24.6169 4.51263 27.3783 5.09523 29.9165C5.67744 32.4545 6.17763 34.6085 6.20667 34.7029C6.25622 34.8645 6.67652 34.8749 13.1809 34.8749H20.1021L20.2286 34.2121C20.3404 33.6255 20.5408 32.6942 21.2584 29.4253C21.3651 28.9395 21.6825 27.4595 21.9635 26.136C22.245 24.8129 22.5432 23.4212 22.6265 23.0432C22.9306 21.6668 23.1724 20.5452 23.6226 18.4283C23.875 17.2406 24.1244 16.0915 24.1774 15.8754C24.4046 14.9487 24.9834 12.1544 24.9834 11.9854C24.9834 11.8072 24.8173 11.8009 20.299 11.8009C17.7226 11.8009 15.6146 11.8152 15.6146 11.8326C15.6146 11.8501 15.5447 12.3197 15.4597 12.8763C15.3742 13.4329 15.2623 14.2031 15.2114 14.5874C14.9377 16.6527 14.7835 17.8837 14.5088 20.196C14.1094 23.5602 13.6845 26.8288 13.5059 27.9087C13.4167 28.4494 13.2979 28.8 13.2979 28.5219C13.2979 28.4657 13.2031 27.895 13.0877 27.2534C12.9724 26.6119 12.7213 25.2034 12.5299 24.1235C12.3386 23.0432 12.052 21.4303 11.8931 20.5395C11.7338 19.6485 11.4164 17.8588 11.1878 16.5627C10.5083 12.7102 10.3704 11.9692 10.3157 11.883C10.1974 11.6961 0.888435 11.7851 0.945223 11.9725ZM26.6714 23.1722C26.6573 29.4274 26.6603 34.6197 26.6782 34.71C26.7081 34.862 27.1391 34.8749 32.1438 34.8749H37.5765L37.5253 11.8497L26.6974 11.7989L26.6714 23.1722ZM111.007 15.7081C111.504 16.0694 111.526 16.3451 111.495 21.865C111.462 27.7064 111.475 27.604 110.716 27.9774C109.875 28.3908 108.881 28.1968 108.546 27.554C108.293 27.0682 108.228 17.0798 108.474 16.4054C108.798 15.517 110.209 15.1277 111.007 15.7081ZM138.506 15.562C139.203 15.7997 139.473 16.8392 139.404 19.0174L139.372 19.9994H136.249L136.272 18.1973C136.298 16.057 136.386 15.7584 137.055 15.5653C137.573 15.4155 138.074 15.4146 138.506 15.562ZM83.8133 26.3628C83.81 30.8903 83.701 31.198 82.1121 31.185C80.624 31.173 80.4402 30.872 80.4402 28.4437C80.4402 26.3188 80.5866 25.8766 81.5255 25.1722C82.1658 24.6914 83.6302 23.8763 83.7368 23.9408C83.7799 23.9666 83.8141 25.0565 83.8133 26.3628ZM86.9977 38.0905C90.4822 43.2166 91.7856 48.3165 90.2121 50.6704C89.8322 51.2395 89.567 51.4959 88.55 52.2749C83.5952 56.07 82.5587 61.4634 85.5918 67.664C86.5128 69.5457 88.3604 72.1087 88.6167 71.8586C88.6484 71.8278 88.6183 71.127 88.5508 70.301C88.1261 65.1336 89.4181 61.7744 93.3387 57.851C95.1563 56.0321 95.7657 55.2832 96.3376 54.1686C98.8117 49.3448 95.7217 43.5276 88.0268 38.5214C86.8284 37.7417 86.7332 37.7017 86.9977 38.0905ZM83.557 46.2408C75.7458 51.4127 70.4534 57.7402 69.4551 63.1041C68.8537 66.3339 69.5373 68.6082 72.275 72.4812C79.1832 82.253 78.9659 85.3576 70.87 92.5043L70.0637 93.2154L70.6682 93.1495C81.6662 91.9404 88.183 88.5456 88.1936 84.0178C88.1993 81.7313 87.2149 79.8368 83.4756 74.9355C80.8193 71.4552 79.3288 68.9196 78.4835 66.4426C76.3267 60.1266 78.2882 53.4148 84.5455 45.7C84.718 45.4872 84.5854 45.5601 83.557 46.2408ZM62.287 65.383C57.4553 71.0889 53.9792 77.6552 53.9562 81.121C53.9237 86.0574 56.0888 89.1188 60.2419 90.0079C65.0958 91.0472 69.1435 90.5193 70.4445 88.6763C72.3002 86.0491 69.8945 79.9202 66.0359 77.4433C64.1996 76.264 63.2643 74.7863 62.6428 72.0799C62.3352 70.7406 62.298 66.9325 62.5812 65.7094C62.7893 64.8093 62.7807 64.7997 62.287 65.383ZM93.8887 77.6882C91.0973 77.9444 91.1152 79.063 93.9847 83.5764C96.5735 87.6473 96.9413 88.9624 96.1464 91.3117C94.5046 96.1667 87.6339 98.0992 71.9276 98.125C58.9929 98.1456 50.8467 96.1091 46.7056 91.819C43.3334 88.3244 44.1189 84.5581 49.2996 79.3789C50.015 78.6627 50.5741 78.0782 50.5417 78.0782C50.0808 78.0782 46.3908 79.7555 44.7378 80.7156C36.6103 85.44 33.6054 92.9972 37.597 98.6755C42.5325 105.697 61.5228 111.623 74.8492 110.301C82.1048 109.581 88.8632 108.051 93.089 106.171C93.8057 105.852 94.3923 105.605 94.3923 105.622C94.3923 105.653 92.4259 106.924 91.6221 107.411C88.5898 109.247 83.0632 111.647 80.24 112.355C80.0724 112.396 79.302 112.589 78.5266 112.783C68.6093 115.263 54.5503 113.395 45.6852 108.42C43.8332 107.38 41.8133 105.973 41.1016 105.227C40.4118 104.504 40.3721 104.688 40.8629 106.344C43.2407 114.366 51.5467 120.192 63.2643 122.052C66.7086 122.6 68.2693 122.704 72.9853 122.704C77.2883 122.704 77.9384 122.67 80.541 122.305C87.45 121.339 92.8343 119.087 97.213 115.331C105.139 108.533 108.459 96.4878 105.209 86.3249C103.282 80.303 99.2161 77.2004 93.8887 77.6882ZM108.235 87.3159C108.305 87.991 108.444 89.161 108.596 90.3516C108.647 90.756 108.745 91.6019 108.813 92.2306L108.936 93.3749L110 93.414C112.735 93.5148 113.919 95.2632 113.613 98.7465C113.278 102.56 110.925 104.505 105.656 105.323C105.303 105.378 105.276 105.409 105.123 105.942C104.912 106.673 104.587 107.48 104.296 107.995C103.98 108.553 103.974 108.548 104.743 108.469C111.985 107.718 117.344 103.702 118.82 97.9212C120.514 91.287 117.029 87.0802 109.567 86.7489L108.17 86.6861L108.235 87.3159ZM39.4896 115.065C33.2715 115.427 28.1899 117.506 26.451 120.398C23.037 126.077 28.371 131.616 41.4036 135.928C43.2091 136.526 46.6766 137.516 48.2044 137.872C48.6751 137.981 49.4341 138.157 49.8911 138.264C53.3467 139.067 59.321 140.052 62.9618 140.422C63.5436 140.481 64.2236 140.551 64.473 140.578C80.8445 142.351 99.3405 139.177 110.442 132.688C121.777 126.065 117.702 119.266 100.135 115.488C99.6082 115.375 98.9793 115.238 98.7369 115.184C98.4952 115.13 98.2894 115.099 98.2788 115.114C98.2699 115.13 98.2088 115.349 98.1438 115.601C96.8331 120.646 89.2798 124.16 78.0222 124.965C62.3865 126.081 48.4492 122.381 43.4637 115.79L42.8644 114.997L41.454 115.015C40.6783 115.025 39.7946 115.048 39.4896 115.065ZM93.7707 125.609C94.6372 129.268 90.9167 132.436 84.2152 133.746C78.0027 134.96 67.5339 134.958 61.4007 133.74C54.7921 132.429 51.2601 129.859 51.2601 126.359C51.2601 125.314 51.2759 125.311 52.4334 126.158C53.7554 127.124 54.9523 127.842 56.6155 128.662C63.7072 132.162 71.9252 133.193 80.2888 131.632C84.4869 130.848 89.724 128.41 92.6797 125.862C93.7073 124.977 93.6259 124.995 93.7707 125.609ZM102.375 145.876L107.609 145.928L109.135 145.106C111.757 143.691 115.999 141.383 116.043 141.346C116.066 141.326 114.02 141.311 111.497 141.311H106.91L102.375 145.876ZM86.2825 142.553C86.1165 142.571 85.5584 142.634 85.0434 142.693C81.3717 143.108 80.2929 144.171 80.2896 147.374L80.2888 148.085H78.0726V151.719H80.2888V170.571H90.8662V151.719H93.3851V148.089L88.9153 148.037L88.9413 147.402C88.9942 146.164 89.1455 146.084 91.5415 146.037L93.3851 146.002V142.489L89.9851 142.504C88.1155 142.512 86.4493 142.533 86.2825 142.553ZM35.6113 147.204C31.2319 147.517 27.5171 149.21 26.4865 151.363C25.9039 152.579 25.8688 152.92 25.8185 157.883C25.7445 165.127 26.0119 166.479 27.8734 168.281C31.2896 171.586 41.7244 171.962 46.3366 168.946C48.7042 167.398 49.5636 165.447 49.5636 161.621V161.145H40.1107L40.0773 163.379C40.038 166.009 39.9288 166.405 39.148 166.75C37.9464 167.282 36.7479 166.683 36.4677 165.41C36.2969 164.634 36.3772 152.263 36.5557 151.838C36.8034 151.248 37.82 150.968 38.6252 151.268C39.4273 151.566 39.5904 152.125 39.5904 154.571V156.235H49.5636V155.814C49.5636 155.19 49.2927 153.223 49.1194 152.589C48.087 148.816 42.764 146.694 35.6113 147.204ZM62.559 147.169C58.8007 147.328 55.2657 148.539 53.7054 150.203C52.7008 151.274 52.287 152.681 52.2848 155.032L52.2835 156.432H62.1251L62.1866 154.345C62.2703 151.504 62.3459 151.319 63.4902 151.167C64.9941 150.965 65.581 151.765 65.581 154.016C65.581 156.153 65.3888 156.303 61.2495 157.409C52.4591 159.756 52.2955 159.885 52.287 164.452C52.2797 168.49 53.1071 169.708 56.4336 170.556C59.9369 171.451 63.4987 170.843 65.3546 169.036L65.8834 168.521V170.571H76.1583L76.1574 163.133C76.1558 152.088 76.0297 151.138 74.379 149.664C72.2661 147.776 68.2519 146.929 62.559 147.169ZM104.919 147.2C99.4878 147.634 96.3221 149.489 95.4459 152.75C95.0188 154.341 94.974 163.181 95.3841 165.042C96.2652 169.037 101.098 171.198 108.546 170.927C112.849 170.77 115.415 169.951 117.424 168.092C119.084 166.554 119.473 165.436 119.475 162.199L119.476 160.948H109.415L109.383 163.28C109.339 166.513 109.138 166.889 107.438 166.889C105.808 166.889 105.744 166.734 105.692 162.643L105.651 159.477L119.425 159.426L119.456 157.61C119.522 153.63 118.999 151.735 117.407 150.186C115.109 147.951 110.199 146.777 104.919 147.2ZM108.038 151.268C108.685 151.532 108.947 152.603 108.88 154.713L108.848 155.695H105.726L105.748 153.893C105.774 151.753 105.862 151.454 106.532 151.261C107.086 151.1 107.633 151.103 108.038 151.268ZM65.4546 166.045C65.1201 167.168 63.0097 167.275 62.4677 166.196C62.1315 165.526 62.1264 163.129 62.4586 162.007C62.6564 161.339 63.1831 160.881 64.7647 160.002L65.5306 159.576L65.5571 162.595C65.5763 164.818 65.5494 165.726 65.4546 166.045Z" fill="black" />
</svg>
