<svg width="150" viewBox="0 0 150 199" fill="none" xmlns="http://www.w3.org/2000/svg">
<g clip-path="url(#clip0_81_197)">
<path fill-rule="evenodd" clip-rule="evenodd" d="M0 0.12508C0 0.236026 8.38235 0.25016 74.9114 0.25016H149.823V199.75H74.9114C8.38235 199.75 0 199.764 0 199.875C0 199.986 8.39214 200 75 200H150V0H75C8.39214 0 0 0.0141333 0 0.12508ZM16.2735 36.1665H19.4576V33.5059C19.4576 30.593 19.4591 30.5835 19.977 30.5835C20.4296 30.5835 20.4304 30.5884 20.4304 33.4751V36.1665H23.6145L23.6123 33.5207C23.61 30.7319 23.5714 30.3534 23.2571 30.0383C22.6132 29.3924 20.8564 29.2479 19.8038 29.7538L19.4576 29.9199V28.0832H16.2735V36.1665ZM11.5417 29.7082L10.8784 29.7602V30.7499H11.586V32.9946C11.586 36.135 11.5601 36.1032 14.1731 36.1545L15.7429 36.1852V35.1859L15.2666 35.1298C14.664 35.0588 14.6816 35.1334 14.6816 32.6561V30.7499H15.5659V29.7591L14.7259 29.7082L14.673 28.6666H11.5946L11.5417 29.7082ZM27.1406 29.5005C25.014 29.8182 24.6469 30.3548 24.6915 33.079C24.729 35.3548 24.9337 35.6775 26.6059 36.0969C29.274 36.7665 31.7182 35.911 31.8652 34.2556C31.9447 33.3631 32.0396 33.4165 30.3795 33.4165H28.9387L28.9076 34.1734C28.8739 34.9997 28.7719 35.1679 28.3072 35.1655C27.8475 35.1626 27.8156 35.0871 27.8156 33.9998V32.9935H29.7615C30.8317 32.9935 31.7629 32.9614 31.8308 32.9218C32.0385 32.8006 31.8866 31.3159 31.611 30.7764C31.107 29.7899 29.0783 29.2107 27.1406 29.5005ZM28.6579 30.7972C28.7051 30.9145 28.7441 31.2145 28.7441 31.4636V31.9166H27.7714V31.4114C27.7714 30.7488 27.8696 30.5835 28.263 30.5835C28.5127 30.5835 28.5881 30.6241 28.6579 30.7972ZM34.3159 36.0834H43.8679V32.9999H34.3159V36.0834ZM47.2286 56.8333H56.7806V32.9999H47.2286V56.8333ZM60.2152 33.0833C60.1991 33.1293 60.1961 38.4918 60.2085 44.9998L60.231 56.8333H69.6934V32.9999H64.9691C61.899 32.9999 60.2344 33.0293 60.2152 33.0833ZM81.0586 37.0028C79.17 37.1826 77.66 37.5208 76.3836 38.0498C73.5686 39.2161 72.7007 40.603 72.7007 43.9359V44.8348L81.4121 44.7917L81.46 42.9166C81.5221 40.4747 81.5829 40.3672 82.8964 40.3814C84.1336 40.3948 84.625 41.4354 84.3736 43.5094C84.2307 44.6931 84.055 44.7786 79.2893 45.9909C73.045 47.5795 72.5957 47.9982 72.725 52.1128C72.8079 54.7666 73.3557 55.7638 75.0886 56.4128C78.3929 57.6506 82.1136 57.3333 84.0664 55.6475C84.3821 55.3748 84.645 55.2019 84.6507 55.2634C84.6564 55.3249 84.6536 55.5888 84.6429 55.8503C84.6329 56.1118 84.6507 56.44 84.6836 56.5796L84.7429 56.8333H93.6614V50.3125C93.6607 41.0347 93.575 40.3916 92.1736 39.1539C90.2514 37.4565 85.6486 36.5658 81.0586 37.0028ZM101.268 37.0434C98.7729 37.4035 97.4579 38.3879 96.875 40.3334C96.6579 41.0573 96.6257 50.0765 96.8364 51.0001C97.39 53.4208 99.5386 54.5486 103.567 54.5317C105.064 54.5253 105.293 54.4988 106.574 54.1808C107.062 54.06 107.807 53.7646 108.419 53.4494L108.981 53.16L108.947 54.4758C108.897 56.3888 108.64 56.7439 107.301 56.7481C106.389 56.7514 105.854 56.4231 105.726 55.7831L105.67 55.4998H96.6721L96.7236 55.8959C97.1321 59.0402 100.393 60.3072 107.636 60.1366C112.479 60.0224 115.202 59.2766 116.995 57.5725C118.11 56.5128 118.071 56.9195 118.071 46.1065V37.2501H109.483L109.311 37.6251C109.216 37.8314 109.06 38.1723 108.964 38.383L108.788 38.7659L108.441 38.507C106.756 37.2491 103.891 36.6647 101.268 37.0434ZM129.26 37.0445C124.789 37.4982 122.211 39.0416 121.474 41.7081C121.034 43.2999 121.053 50.8941 121.501 52.4636C122.373 55.5164 126.02 57.1114 132.134 57.1145C136.447 57.1167 138.778 56.4761 140.741 54.7486C142.209 53.4565 142.571 52.4753 142.571 49.7783V48.6667H133.738L133.71 50.6457C133.671 53.4208 133.521 53.689 132.002 53.702C130.56 53.7148 130.506 53.583 130.501 50.0415L130.498 47.3749L142.571 47.3321V45.7263C142.571 42.4608 142.15 40.9184 140.916 39.6624C138.889 37.5992 134.191 36.5442 129.26 37.0445ZM11.7082 37.3957C11.7334 37.4759 12.213 39.4729 12.7744 41.8333C13.3361 44.1939 13.9365 46.7064 14.1086 47.4166C14.2811 48.1272 14.8402 50.4708 15.3517 52.6251C15.8629 54.779 16.302 56.6072 16.3275 56.6873C16.371 56.8245 16.74 56.8333 22.4505 56.8333H28.527L28.638 56.2707C28.7362 55.7729 28.9121 54.9825 29.5421 52.2081C29.6359 51.7958 29.9145 50.5397 30.1612 49.4165C30.4084 48.2935 30.6701 47.1124 30.7433 46.7915C31.0103 45.6234 31.2225 44.6715 31.6178 42.8748C31.8394 41.8668 32.0584 40.8916 32.1049 40.7082C32.3044 39.9217 32.8125 37.5501 32.8125 37.4066C32.8125 37.2555 32.6666 37.2501 28.6999 37.2501C26.4379 37.2501 24.5872 37.2622 24.5872 37.277C24.5872 37.2919 24.5258 37.6904 24.4511 38.1628C24.3761 38.6352 24.2779 39.2889 24.2332 39.615C23.9929 41.3679 23.8575 42.4127 23.6164 44.3751C23.2657 47.2304 22.8926 50.0045 22.7359 50.921C22.6575 51.3799 22.5532 51.6775 22.5532 51.4414C22.5532 51.3937 22.47 50.9093 22.3687 50.3648C22.2675 49.8203 22.047 48.625 21.879 47.7085C21.711 46.7915 21.4594 45.4227 21.3199 44.6666C21.18 43.9105 20.9014 42.3915 20.7007 41.2915C20.1041 38.0218 19.983 37.3929 19.935 37.3197C19.8311 37.1611 11.6584 37.2367 11.7082 37.3957ZM34.2945 46.901C34.2821 52.21 34.2847 56.6167 34.3005 56.6934C34.3267 56.8224 34.7051 56.8333 39.099 56.8333H43.8686L43.8236 37.2915L34.3174 37.2484L34.2945 46.901ZM108.336 40.5662C108.773 40.8728 108.792 41.1068 108.765 45.7916C108.736 50.7493 108.748 50.6624 108.081 50.9793C107.343 51.3301 106.47 51.1655 106.176 50.6199C105.954 50.2076 105.897 41.7304 106.113 41.158C106.397 40.404 107.636 40.0736 108.336 40.5662ZM132.48 40.4422C133.091 40.6439 133.329 41.5262 133.268 43.3748L133.24 44.2083H130.498L130.518 42.6788C130.541 40.8623 130.619 40.6089 131.206 40.445C131.66 40.3178 132.101 40.3171 132.48 40.4422ZM84.4621 49.609C84.4593 53.4515 84.3636 53.7127 82.9686 53.7017C81.6621 53.6914 81.5007 53.436 81.5007 51.375C81.5007 49.5716 81.6293 49.1963 82.4536 48.5985C83.0157 48.1904 84.3014 47.4986 84.395 47.5534C84.4329 47.5753 84.4629 48.5003 84.4621 49.609ZM87.2579 59.5624C90.3171 63.913 91.4614 68.2413 90.08 70.2391C89.7464 70.7221 89.5136 70.9397 88.6207 71.6009C84.2707 74.8218 83.3607 79.3993 86.0236 84.6618C86.8321 86.2589 88.4543 88.4341 88.6793 88.2218C88.7071 88.1956 88.6807 87.6009 88.6214 86.8998C88.2486 82.5142 89.3829 79.6632 92.825 76.3334C94.4207 74.7897 94.9557 74.1541 95.4579 73.2081C97.63 69.1141 94.9171 64.1769 88.1614 59.9281C87.1093 59.2664 87.0257 59.2324 87.2579 59.5624ZM84.2371 66.4797C77.3793 70.8691 72.7329 76.2394 71.8564 80.7918C71.3284 83.5329 71.9286 85.4631 74.3321 88.7502C80.3971 97.0437 80.2064 99.6786 73.0986 105.744L72.3907 106.348L72.9214 106.292C82.5771 105.266 88.2986 102.384 88.3079 98.5415C88.3129 96.6009 87.4486 94.993 84.1657 90.8332C81.8336 87.8795 80.525 85.7274 79.7829 83.6252C77.8893 78.2647 79.6114 72.5683 85.105 66.0207C85.2564 65.8401 85.14 65.9019 84.2371 66.4797ZM65.5631 82.7259C61.3211 87.5686 58.2694 93.1415 58.2491 96.083C58.2206 100.272 60.1215 102.871 63.7676 103.625C68.0291 104.507 71.5829 104.059 72.725 102.495C74.3543 100.265 72.2421 95.0638 68.8545 92.9616C67.2424 91.9607 66.4211 90.7065 65.8755 88.4096C65.6055 87.2729 65.5729 84.041 65.8215 83.0029C66.0041 82.2389 65.9966 82.2308 65.5631 82.7259ZM93.3079 93.1694C90.8571 93.3869 90.8729 94.3362 93.3921 98.1668C95.665 101.622 95.9879 102.738 95.29 104.732C93.8486 108.852 87.8164 110.493 74.0271 110.514C62.6711 110.532 55.5191 108.803 51.8835 105.162C48.9229 102.197 49.6125 99 54.1609 94.6044C54.789 93.9965 55.2799 93.5004 55.2514 93.5004C54.8467 93.5004 51.6071 94.924 50.1559 95.7389C43.0204 99.7485 40.3822 106.162 43.8866 110.982C48.2197 116.941 64.8922 121.97 76.5921 120.848C82.9621 120.238 88.8957 118.939 92.6057 117.343C93.235 117.072 93.75 116.863 93.75 116.877C93.75 116.904 92.0236 117.983 91.3179 118.396C88.6557 119.954 83.8036 121.99 81.325 122.591C81.1779 122.626 80.5014 122.79 79.8207 122.955C71.1139 125.059 58.7707 123.474 50.9876 119.252C49.3616 118.369 47.5883 117.176 46.9635 116.542C46.3579 115.928 46.323 116.085 46.7539 117.49C48.8415 124.299 56.1337 129.243 66.4211 130.822C69.4451 131.286 70.8154 131.375 74.9557 131.375C78.7336 131.375 79.3043 131.346 81.5893 131.037C87.655 130.217 92.3821 128.305 96.2264 125.117C103.185 119.348 106.1 109.125 103.246 100.5C101.555 95.3886 97.985 92.7555 93.3079 93.1694ZM105.904 101.341C105.964 101.914 106.086 102.907 106.22 103.917C106.265 104.26 106.351 104.978 106.411 105.512L106.519 106.483L107.453 106.516C109.854 106.602 110.894 108.086 110.625 111.042C110.331 114.279 108.265 115.929 103.639 116.624C103.329 116.67 103.306 116.696 103.171 117.148C102.986 117.769 102.7 118.454 102.445 118.891C102.167 119.365 102.162 119.361 102.837 119.293C109.196 118.656 113.9 115.248 115.196 110.341C116.684 104.711 113.624 101.141 107.073 100.859L105.846 100.806L105.904 101.341ZM45.5482 124.892C40.089 125.199 35.6276 126.963 34.101 129.417C31.1036 134.238 35.7866 138.939 47.2286 142.598C48.8137 143.106 51.858 143.946 53.1994 144.248C53.6126 144.341 54.279 144.49 54.6802 144.581C57.714 145.262 62.9591 146.099 66.1556 146.412C66.6664 146.463 67.2634 146.522 67.4824 146.545C81.8557 148.05 98.0943 145.355 107.841 139.849C117.792 134.227 114.214 128.457 98.7914 125.251C98.3293 125.155 97.7771 125.038 97.5643 124.993C97.3521 124.947 97.1714 124.921 97.1621 124.934C97.1543 124.947 97.1007 125.133 97.0436 125.347C95.8929 129.628 89.2614 132.61 79.3779 133.293C65.6505 134.241 53.4143 131.1 49.0373 125.507L48.5111 124.834L47.2729 124.849C46.5919 124.858 45.816 124.877 45.5482 124.892ZM93.2043 133.84C93.965 136.946 90.6986 139.635 84.815 140.747C79.3607 141.776 70.1696 141.775 64.785 140.741C58.983 139.629 55.8821 137.447 55.8821 134.477C55.8821 133.59 55.896 133.588 56.9122 134.307C58.0729 135.127 59.1236 135.735 60.5839 136.431C66.81 139.402 74.025 140.277 81.3679 138.952C85.0536 138.286 89.6514 136.217 92.2464 134.055C93.1486 133.304 93.0771 133.32 93.2043 133.84ZM100.759 151.041L105.354 151.086L106.694 150.388C108.996 149.187 112.719 147.228 112.758 147.197C112.779 147.18 110.982 147.167 108.767 147.167H104.74L100.759 151.041ZM86.63 148.221C86.4843 148.237 85.9943 148.29 85.5421 148.34C82.3186 148.692 81.3714 149.594 81.3686 152.313L81.3679 152.916H79.4221V156H81.3679V172H90.6543V156H92.8657V152.92L88.9414 152.875L88.9643 152.336C89.0107 151.286 89.1436 151.217 91.2471 151.178L92.8657 151.148V148.167L89.8807 148.179C88.2393 148.186 86.7764 148.204 86.63 148.221ZM42.1433 152.169C38.2984 152.434 35.037 153.871 34.1321 155.698C33.6206 156.73 33.5899 157.019 33.5456 161.231C33.4807 167.38 33.7155 168.528 35.3498 170.057C38.349 172.862 47.5102 173.181 51.5595 170.621C53.6381 169.307 54.3926 167.652 54.3926 164.404V164H46.0935L46.0642 165.896C46.0297 168.128 45.9338 168.465 45.2483 168.757C44.1934 169.209 43.1411 168.7 42.8951 167.62C42.7451 166.962 42.8156 156.462 42.9724 156.101C43.1899 155.601 44.0824 155.363 44.7893 155.617C45.4935 155.871 45.6367 156.345 45.6367 158.421V159.833H54.3926V159.476C54.3926 158.946 54.1549 157.277 54.0026 156.739C53.0963 153.536 48.423 151.735 42.1433 152.169ZM65.802 152.139C62.5024 152.273 59.3989 153.301 58.029 154.714C57.147 155.623 56.7836 156.817 56.7817 158.812L56.7806 160H65.421L65.475 158.229C65.5485 155.817 65.6149 155.661 66.6195 155.532C67.9399 155.361 68.4551 156.039 68.4551 157.95C68.4551 159.763 68.2864 159.891 64.6523 160.83C56.9348 162.822 56.7911 162.931 56.7836 166.807C56.7773 170.234 57.5036 171.268 60.4241 171.988C63.4999 172.747 66.627 172.231 68.2564 170.698L68.7206 170.26V172H77.7414L77.7407 165.687C77.7393 156.314 77.6286 155.507 76.1793 154.256C74.3243 152.654 70.8 151.935 65.802 152.139ZM102.992 152.165C98.2236 152.534 95.4443 154.107 94.675 156.875C94.3 158.225 94.2607 165.728 94.6207 167.307C95.3943 170.699 99.6371 172.533 106.176 172.302C109.954 172.169 112.207 171.474 113.971 169.896C115.428 168.591 115.769 167.642 115.771 164.895L115.772 163.833H106.939L106.911 165.812C106.873 168.556 106.696 168.875 105.204 168.875C103.772 168.875 103.716 168.744 103.671 165.272L103.634 162.584L115.728 162.541L115.754 161C115.813 157.622 115.354 156.014 113.956 154.7C111.938 152.803 107.628 151.806 102.992 152.165ZM105.73 155.617C106.299 155.842 106.528 156.75 106.469 158.541L106.441 159.375H103.7L103.719 157.845C103.742 156.029 103.82 155.776 104.408 155.611C104.894 155.475 105.374 155.478 105.73 155.617ZM68.3441 168.159C68.0505 169.112 66.1976 169.203 65.7218 168.287C65.4266 167.719 65.4221 165.684 65.7139 164.732C65.8875 164.165 66.3499 163.776 67.7385 163.031L68.4109 162.669L68.4341 165.231C68.451 167.118 68.4274 167.888 68.3441 168.159Z" fill="black" stroke="white" stroke-width="0.4"/>
</g>
<defs>
<clipPath id="clip0_81_197">
<rect width="150" height="200" fill="white"/>
</clipPath>
</defs>
</svg>
