<svg width="210" viewBox="0 0 209 299" fill="none" xmlns="http://www.w3.org/2000/svg">
<g clip-path="url(#clip0_28_70)">
<path fill-rule="evenodd" clip-rule="evenodd" d="M0 0.187621C0 0.354039 11.7353 0.37524 104.876 0.37524H209.752V299.625H104.876C11.7353 299.625 0 299.646 0 299.813C0 299.979 11.749 300 105 300H210V0H105C11.749 0 0 0.0211999 0 0.187621ZM22.7829 54.2497H27.2407V50.2588C27.2407 45.8895 27.2428 45.8752 27.9678 45.8752C28.6015 45.8752 28.6025 45.8826 28.6025 50.2127V54.2497H33.0603L33.0572 50.281C33.054 46.0978 32.9999 45.5302 32.56 45.0574C31.6585 44.0886 29.1989 43.8718 27.7253 44.6307L27.2407 44.8799V42.1248H22.7829V54.2497ZM16.1584 44.5623L15.2297 44.6403V46.1248H16.2204V49.4919C16.2204 54.2025 16.1842 54.1549 19.8424 54.2317L22.04 54.2779V52.7789L21.3733 52.6947C20.5296 52.5882 20.5543 52.7 20.5543 48.9841V46.1248H21.7922V44.6387L20.6162 44.5623L20.5422 43H16.2325L16.1584 44.5623ZM37.9969 44.2508C35.0196 44.7272 34.5056 45.5323 34.5681 49.6186C34.6206 53.0323 34.9072 53.5162 37.2482 54.1453C40.9836 55.1497 44.4055 53.8665 44.6113 51.3834C44.7226 50.0447 44.8555 50.1248 42.5313 50.1248H40.5142L40.4707 51.26C40.4234 52.4996 40.2806 52.7519 39.6301 52.7483C38.9865 52.7439 38.9419 52.6306 38.9419 50.9997V49.4903H41.6661C43.1644 49.4903 44.468 49.4421 44.5631 49.3828C44.8539 49.2009 44.6413 46.9738 44.2554 46.1646C43.5498 44.6848 40.7096 43.8161 37.9969 44.2508ZM40.121 46.1958C40.1872 46.3717 40.2418 46.8217 40.2418 47.1954V47.8749H38.8799V47.117C38.8799 46.1232 39.0175 45.8752 39.5682 45.8752C39.9178 45.8752 40.0234 45.9362 40.121 46.1958ZM48.0422 54.1251H61.415V49.4999H48.0422V54.1251ZM66.1201 85.2499H79.4929V49.4999H66.1201V85.2499ZM84.3013 49.625C84.2788 49.6939 84.2746 57.7377 84.2919 67.4997L84.3234 85.2499H97.5707V49.4999H90.9568C86.6586 49.4999 84.3281 49.5439 84.3013 49.625ZM113.482 55.5042C110.838 55.7739 108.724 56.2812 106.937 57.0747C102.996 58.8241 101.781 60.9045 101.781 65.9038V67.2521L113.977 67.1876L114.044 64.3749C114.131 60.712 114.216 60.5509 116.055 60.5721C117.787 60.5923 118.475 62.1531 118.123 65.2641C117.923 67.0396 117.677 67.1679 111.005 68.9864C102.263 71.3692 101.634 71.9973 101.815 78.1691C101.931 82.15 102.698 83.6456 105.124 84.6193C109.75 86.4759 114.959 85.9999 117.693 83.4713C118.135 83.0621 118.503 82.8029 118.511 82.8951C118.519 82.9873 118.515 83.3832 118.5 83.7755C118.486 84.1677 118.511 84.66 118.557 84.8693L118.64 85.2499H131.126V75.4687C131.125 61.552 131.005 60.5874 129.043 58.7308C126.352 56.1848 119.908 54.8486 113.482 55.5042ZM141.775 55.5651C138.282 56.1052 136.441 57.5818 135.625 60.5C135.321 61.5859 135.276 75.1148 135.571 76.5001C136.346 80.1312 139.354 81.823 144.994 81.7976C147.09 81.788 147.41 81.7482 149.204 81.2712C149.887 81.09 150.93 80.6469 151.786 80.1741L152.573 79.74L152.526 81.7137C152.456 84.5832 152.096 85.1159 150.221 85.1222C148.945 85.127 148.195 84.6346 148.017 83.6747L147.938 83.2497H135.341L135.413 83.8438C135.985 88.5603 140.55 90.4609 150.69 90.2049C157.47 90.0337 161.283 88.9149 163.793 86.3587C165.354 84.7693 165.3 85.3792 165.3 69.1597V55.8752H153.276L153.035 56.4376C152.903 56.747 152.684 57.2585 152.549 57.5745L152.303 58.1489L151.817 57.7605C149.458 55.8736 145.448 54.9971 141.775 55.5651ZM180.964 55.5668C174.704 56.2472 171.096 58.5624 170.064 62.5622C169.447 64.9499 169.474 76.3412 170.102 78.6954C171.322 83.2746 176.428 85.667 184.988 85.6718C191.026 85.675 194.289 84.7141 197.037 82.123C199.093 80.1848 199.599 78.7129 199.599 74.6674V73.0001H187.233L187.194 75.9685C187.139 80.1312 186.929 80.5335 184.803 80.553C182.784 80.5721 182.708 80.3745 182.702 75.0622L182.697 71.0624L199.599 70.9982V68.5894C199.599 63.6912 199.01 61.3776 197.282 59.4935C194.445 56.3988 187.868 54.8163 180.964 55.5668ZM16.3915 56.0936C16.4267 56.2138 17.0982 59.2094 17.8841 62.7499C18.6706 66.2908 19.5111 70.0596 19.7521 71.1249C19.9936 72.1907 20.7763 75.7062 21.4924 78.9376C22.208 82.1686 22.8228 84.9107 22.8585 85.031C22.9194 85.2367 23.436 85.2499 31.4307 85.2499H39.9378L40.0932 84.4061C40.2307 83.6594 40.477 82.4738 41.359 78.3122C41.4902 77.6937 41.8803 75.8096 42.2257 74.1248C42.5717 72.4403 42.9382 70.6686 43.0406 70.1873C43.4144 68.4351 43.7115 67.0073 44.2649 64.3123C44.5751 62.8002 44.8817 61.3374 44.9468 61.0623C45.2261 59.8825 45.9375 56.3252 45.9375 56.11C45.9375 55.8832 45.7333 55.8752 40.1798 55.8752C37.013 55.8752 34.4221 55.8933 34.4221 55.9156C34.4221 55.9378 34.3361 56.5356 34.2316 57.2442C34.1266 57.9528 33.989 58.9334 33.9265 59.4225C33.59 62.0518 33.4005 63.619 33.0629 66.5627C32.572 70.8456 32.0497 75.0067 31.8302 76.3814C31.7205 77.0699 31.5745 77.5162 31.5745 77.1621C31.5745 77.0906 31.458 76.364 31.3162 75.5472C31.1745 74.7305 30.8658 72.9375 30.6306 71.5627C30.3954 70.1873 30.0431 68.1341 29.8478 67C29.652 65.8657 29.2619 63.5873 28.981 61.9373C28.1458 57.0328 27.9762 56.0894 27.909 55.9796C27.7636 55.7417 16.3217 55.855 16.3915 56.0936ZM48.0123 70.3516C47.995 78.3149 47.9986 84.925 48.0207 85.04C48.0574 85.2335 48.5872 85.2499 54.7386 85.2499H61.4161L61.3531 55.9373L48.0443 55.8726L48.0123 70.3516ZM151.671 60.8493C152.282 61.3093 152.309 61.6602 152.271 68.6874C152.231 76.1239 152.247 75.9935 151.314 76.469C150.28 76.9952 149.058 76.7483 148.647 75.9299C148.336 75.3114 148.256 62.5956 148.558 61.737C148.956 60.606 150.691 60.1104 151.671 60.8493ZM185.472 60.6633C186.328 60.9659 186.66 62.2893 186.575 65.0623L186.536 66.3124H182.697L182.725 64.0182C182.757 61.2934 182.866 60.9134 183.688 60.6675C184.324 60.4767 184.941 60.4757 185.472 60.6633ZM118.247 74.4135C118.243 80.1773 118.109 80.569 116.156 80.5525C114.327 80.5372 114.101 80.154 114.101 77.0625C114.101 74.3574 114.281 73.7945 115.435 72.8978C116.222 72.2856 118.022 71.2479 118.153 71.33C118.206 71.3629 118.248 72.7504 118.247 74.4135ZM122.161 89.3437C126.444 95.8695 128.046 102.362 126.112 105.359C125.645 106.083 125.319 106.41 124.069 107.401C117.979 112.233 116.705 119.099 120.433 126.993C121.565 129.388 123.836 132.651 124.151 132.333C124.19 132.293 124.153 131.401 124.07 130.35C123.548 123.771 125.136 119.495 129.955 114.5C132.189 112.185 132.938 111.231 133.641 109.812C136.682 103.671 132.884 96.2654 123.426 89.8922C121.953 88.8996 121.836 88.8486 122.161 89.3437ZM117.932 99.7195C108.331 106.304 101.826 114.359 100.599 121.188C99.8597 125.299 100.7 128.195 104.065 133.125C112.556 145.566 112.289 149.518 102.338 158.616L101.347 159.521L102.09 159.438C115.608 157.898 123.618 153.576 123.631 147.812C123.638 144.901 122.428 142.49 117.832 136.25C114.567 131.819 112.735 128.591 111.696 125.438C109.045 117.397 111.456 108.852 119.147 99.031C119.359 98.7601 119.196 98.8529 117.932 99.7195ZM91.7884 124.089C85.8496 131.353 81.5771 139.712 81.5488 144.124C81.5089 150.409 84.1701 154.306 89.2747 155.438C95.2408 156.761 100.216 156.089 101.815 153.743C104.096 150.398 101.139 142.596 96.3963 139.442C94.1393 137.941 92.9896 136.06 92.2257 132.614C91.8477 130.909 91.802 126.061 92.1501 124.504C92.4058 123.358 92.3953 123.346 91.7884 124.089ZM130.631 139.754C127.2 140.08 127.222 141.504 130.749 147.25C133.931 152.433 134.383 154.107 133.406 157.098C131.388 163.279 122.943 165.739 103.638 165.772C87.7396 165.798 77.7268 163.205 72.6369 157.744C68.492 153.295 69.4575 148.5 75.8252 141.907C76.7046 140.995 77.3918 140.251 77.3519 140.251C76.7854 140.251 72.25 142.386 70.2182 143.608C60.2285 149.623 56.5351 159.244 61.4413 166.472C67.5076 175.411 90.8491 182.955 107.229 181.272C116.147 180.356 124.454 178.408 129.648 176.015C130.529 175.609 131.25 175.294 131.25 175.315C131.25 175.356 128.833 176.974 127.845 177.593C124.118 179.931 117.325 182.986 113.855 183.887C113.649 183.939 112.702 184.186 111.749 184.432C99.5594 187.589 82.279 185.211 71.3827 178.877C69.1063 177.554 66.6236 175.763 65.7489 174.814C64.901 173.893 64.8522 174.127 65.4554 176.235C68.3781 186.448 78.5872 193.864 92.9896 196.233C97.2232 196.93 99.1415 197.062 104.938 197.062C110.227 197.062 111.026 197.019 114.225 196.555C122.717 195.325 129.335 192.457 134.717 187.676C144.459 179.021 148.54 163.687 144.545 150.749C142.177 143.083 137.179 139.133 130.631 139.754ZM148.265 152.011C148.35 152.87 148.521 154.36 148.708 155.876C148.771 156.39 148.891 157.467 148.975 158.268L149.126 159.724L150.434 159.774C153.795 159.903 155.251 162.128 154.875 166.563C154.463 171.418 151.571 173.894 145.095 174.935C144.661 175.005 144.628 175.044 144.439 175.723C144.18 176.654 143.78 177.681 143.423 178.336C143.034 179.048 143.027 179.041 143.972 178.94C152.874 177.984 159.46 172.872 161.275 165.512C163.357 157.066 159.073 151.711 149.902 151.289L148.184 151.209L148.265 152.011ZM63.7675 187.338C56.1246 187.799 49.8787 190.445 47.7414 194.126C43.5451 201.356 50.1013 208.408 66.1201 213.897C68.3392 214.659 72.6012 215.919 74.4791 216.372C75.0577 216.511 75.9906 216.735 76.5523 216.871C80.7996 217.893 88.1428 219.148 92.6179 219.618C93.3329 219.694 94.1687 219.783 94.4753 219.817C114.598 222.075 137.332 218.033 150.977 209.773C164.909 201.341 159.9 192.685 138.308 187.876C137.661 187.732 136.888 187.558 136.59 187.49C136.293 187.42 136.04 187.381 136.027 187.4C136.016 187.42 135.941 187.699 135.861 188.02C134.25 194.442 124.966 198.916 111.129 199.94C91.9107 201.362 74.78 196.651 68.6522 188.26L67.9156 187.251L66.182 187.273C65.2286 187.286 64.1424 187.315 63.7675 187.338ZM130.486 200.76C131.551 205.419 126.978 209.452 118.741 211.12C111.105 212.665 98.2375 212.662 90.699 211.112C82.5762 209.443 78.235 206.171 78.235 201.715C78.235 200.386 78.2544 200.382 79.6771 201.46C81.302 202.69 82.7731 203.603 84.8174 204.647C93.534 209.103 103.635 210.415 113.915 208.428C119.075 207.43 125.512 204.326 129.145 201.083C130.408 199.956 130.308 199.979 130.486 200.76ZM141.062 226.562L147.495 226.628L149.371 225.582C152.594 223.78 157.807 220.842 157.861 220.795C157.89 220.77 155.375 220.75 152.274 220.75H146.636L141.062 226.562ZM121.282 222.331C121.078 222.355 120.392 222.435 119.759 222.51C115.246 223.038 113.92 224.391 113.916 228.469L113.915 229.374H111.191V234H113.915V258H126.916V234H130.012V229.379L124.518 229.313L124.55 228.504C124.615 226.928 124.801 226.826 127.746 226.767L130.012 226.723V222.25L125.833 222.269C123.535 222.279 121.487 222.307 121.282 222.331ZM59.0006 228.253C53.6177 228.651 49.0518 230.806 47.785 233.547C47.0689 235.095 47.0258 235.529 46.9639 241.847C46.873 251.07 47.2017 252.791 49.4897 255.085C53.6886 259.293 66.5143 259.771 72.1833 255.931C75.0934 253.961 76.1497 251.477 76.1497 246.607V246H64.5309L64.4899 248.844C64.4416 252.193 64.3073 252.697 63.3476 253.136C61.8707 253.813 60.3976 253.051 60.0532 251.43C59.8432 250.442 59.9419 234.693 60.1613 234.152C60.4658 233.401 61.7153 233.045 62.705 233.426C63.6909 233.806 63.8914 234.517 63.8914 237.631V239.75H76.1497V239.214C76.1497 238.419 75.8168 235.915 75.6037 235.108C74.3348 230.304 67.7922 227.603 59.0006 228.253ZM92.1228 228.208C87.5033 228.41 83.1584 229.952 81.2406 232.07C80.0058 233.434 79.4971 235.225 79.4944 238.218L79.4929 240H91.5894L91.665 237.343C91.7679 233.726 91.8608 233.492 93.2673 233.298C95.1158 233.041 95.8372 234.059 95.8372 236.925C95.8372 239.645 95.6009 239.836 90.5132 241.245C79.7087 244.233 79.5076 244.397 79.4971 250.21C79.4882 255.351 80.5051 256.902 84.5938 257.982C88.8998 259.12 93.2778 258.347 95.5589 256.047L96.2089 255.39V258H108.838L108.837 248.531C108.835 234.47 108.68 233.261 106.651 231.384C104.054 228.981 99.12 227.903 92.1228 228.208ZM144.189 228.248C137.513 228.8 133.622 231.161 132.545 235.313C132.02 237.338 131.965 248.593 132.469 250.961C133.552 256.048 139.492 258.799 148.647 258.453C153.936 258.254 157.09 257.211 159.559 254.844C161.599 252.887 162.077 251.463 162.08 247.343L162.081 245.75H149.715L149.676 248.718C149.622 252.835 149.374 253.313 147.285 253.313C145.281 253.313 145.203 253.116 145.139 247.907L145.088 243.876L162.019 243.812L162.056 241.5C162.138 236.433 161.495 234.021 159.538 232.049C156.713 229.204 150.679 227.709 144.189 228.248ZM148.022 233.426C148.818 233.763 149.139 235.125 149.057 237.812L149.018 239.062H145.18L145.207 236.768C145.239 234.043 145.348 233.663 146.171 233.417C146.852 233.213 147.524 233.217 148.022 233.426ZM95.6818 252.238C95.2707 253.668 92.6767 253.804 92.0105 252.431C91.5973 251.578 91.591 248.526 91.9994 247.098C92.2425 246.248 92.8898 245.665 94.8339 244.546L95.7752 244.003L95.8078 247.846C95.8314 250.677 95.7983 251.832 95.6818 252.238Z" fill="black" stroke="white" stroke-width="0.4"/>
</g>
<defs>
<clipPath id="clip0_28_70">
<rect width="210" height="300" fill="white"/>
</clipPath>
</defs>
</svg>
