<svg width="76" height="45" viewBox="0 0 76 45" fill="none" xmlns="http://www.w3.org/2000/svg">
<path d="M11.136 44.8L19.776 32.32H29.312V44.8H39.68V0H20.288C16.32 0 12.8853 0.661334 9.984 1.984C7.04 3.30667 4.77866 5.184 3.2 7.616C1.62133 10.048 0.831997 12.928 0.831997 16.256C0.831997 19.584 1.64266 22.464 3.264 24.896C4.84267 27.2853 7.104 29.12 10.048 30.4L0 44.8H11.136ZM11.328 16.256C11.328 13.7387 12.1387 11.8187 13.76 10.496C15.3813 9.13067 17.7493 8.448 20.864 8.448H29.312V24.064H20.864C17.7493 24.064 15.3813 23.3813 13.76 22.016C12.1387 20.6507 11.328 18.7307 11.328 16.256Z" fill="black"/>
<path d="M67.392 21.504C69.952 22.3147 71.9573 23.68 73.408 25.6C74.8587 27.4773 75.584 29.8027 75.584 32.576C75.584 36.5013 74.048 39.5307 70.976 41.664C67.9467 43.7547 63.5093 44.8 57.664 44.8H34.496V0H56.384C61.8453 0 66.0267 1.04533 68.928 3.136C71.872 5.22667 73.344 8.064 73.344 11.648C73.344 13.824 72.8107 15.7653 71.744 17.472C70.72 19.1787 69.2693 20.5227 67.392 21.504ZM44.8 7.808V18.368H55.104C57.664 18.368 59.6053 17.92 60.928 17.024C62.2507 16.128 62.912 14.8053 62.912 13.056C62.912 11.3067 62.2507 10.0053 60.928 9.152C59.6053 8.256 57.664 7.808 55.104 7.808H44.8ZM56.896 36.992C59.6267 36.992 61.6747 36.544 63.04 35.648C64.448 34.752 65.152 33.3653 65.152 31.488C65.152 27.776 62.4 25.92 56.896 25.92H44.8V36.992H56.896Z" fill="black"/>
</svg>
