<svg width="210" height="229" viewBox="0 0 210 229" fill="none" xmlns="http://www.w3.org/2000/svg">
<mask id="path-1-inside-1_15_30" fill="white">
<path fill-rule="evenodd" clip-rule="evenodd" d="M0 0.143217C0 0.27025 11.7353 0.286433 104.876 0.286433H209.752V228.714H104.876C11.7353 228.714 0 228.73 0 228.857C0 228.984 11.749 229 105 229H210V0H105C11.749 0 0 0.0161826 0 0.143217ZM22.7829 41.4106H27.2407V38.3642C27.2407 35.029 27.2428 35.0181 27.9678 35.0181C28.6015 35.0181 28.6025 35.0237 28.6025 38.329V41.4106H33.0603L33.0572 38.3812C33.054 35.188 32.9999 34.7547 32.56 34.3938C31.6585 33.6543 29.1989 33.4888 27.7253 34.0681L27.2407 34.2583V32.1553H22.7829V41.4106ZM16.1584 34.0159L15.2297 34.0754V35.2086H16.2204V37.7788C16.2204 41.3746 16.1842 41.3382 19.8424 41.3969L22.04 41.4321V40.2879L21.3733 40.2236C20.5296 40.1423 20.5543 40.2277 20.5543 37.3912V35.2086H21.7922V34.0742L20.6162 34.0159L20.5422 32.8233H16.2325L16.1584 34.0159ZM37.9969 33.7781C35.0196 34.1418 34.5056 34.7563 34.5681 37.8755C34.6206 40.4813 34.9072 40.8507 37.2482 41.3309C40.9836 42.0976 44.4055 41.1181 44.6113 39.2227C44.7226 38.2008 44.8555 38.2619 42.5313 38.2619H40.5142L40.4707 39.1285C40.4234 40.0747 40.2806 40.2673 39.6301 40.2645C38.9865 40.2612 38.9419 40.1747 38.9419 38.9298V37.7776H41.6661C43.1644 37.7776 44.468 37.7408 44.5631 37.6955C44.8539 37.5567 44.6413 35.8567 44.2554 35.239C43.5498 34.1094 40.7096 33.4463 37.9969 33.7781ZM40.121 35.2628C40.1872 35.3971 40.2418 35.7406 40.2418 36.0258V36.5445H38.8799V35.966C38.8799 35.2074 39.0175 35.0181 39.5682 35.0181C39.9178 35.0181 40.0234 35.0646 40.121 35.2628ZM48.0422 41.3155H61.415V37.7849H48.0422V41.3155ZM66.1201 65.0741H79.4929V37.7849H66.1201V65.0741ZM84.3013 37.8804C84.2788 37.933 84.2746 44.0731 84.2919 51.5248L84.3234 65.0741H97.5707V37.7849H90.9568C86.6586 37.7849 84.3281 37.8185 84.3013 37.8804ZM113.482 42.3682C110.838 42.5741 108.724 42.9613 106.937 43.567C102.996 44.9024 101.781 46.4904 101.781 50.3066V51.3358L113.977 51.2865L114.044 49.1395C114.131 46.3435 114.216 46.2205 116.055 46.2367C117.787 46.2521 118.475 47.4435 118.123 49.8183C117.923 51.1736 117.677 51.2715 111.005 52.6596C102.263 54.4785 101.634 54.9579 101.815 59.6691C101.931 62.7078 102.698 63.8495 105.124 64.5927C109.75 66.0099 114.959 65.6466 117.693 63.7164C118.135 63.4041 118.503 63.2062 118.511 63.2766C118.519 63.347 118.515 63.6492 118.5 63.9486C118.486 64.248 118.511 64.6238 118.557 64.7836L118.64 65.0741H131.126L131.126 57.6078C131.125 46.9847 131.005 46.2484 129.043 44.8312C126.352 42.8877 119.908 41.8678 113.482 42.3682ZM141.775 42.4147C138.282 42.827 136.441 43.9541 135.625 46.1817C135.321 47.0106 135.276 57.3376 135.571 58.3951C136.346 61.1668 139.354 62.4582 144.994 62.4388C147.09 62.4315 147.41 62.4011 149.204 62.037C149.887 61.8987 150.93 61.5605 151.786 61.1996L152.573 60.8682L152.526 62.3748C152.456 64.5652 152.096 64.9718 150.221 64.9766C148.945 64.9803 148.195 64.6044 148.017 63.8717L147.938 63.5473H135.341L135.413 64.0008C135.985 67.601 140.55 69.0518 150.69 68.8564C157.47 68.7257 161.283 67.8717 163.793 65.9205C165.354 64.7072 165.3 65.1728 165.3 52.7919V42.6514H153.276L153.035 43.0807C152.903 43.3169 152.684 43.7073 152.549 43.9485L152.303 44.387L151.817 44.0905C149.458 42.6502 145.448 41.9811 141.775 42.4147ZM180.964 42.416C174.704 42.9354 171.096 44.7026 170.064 47.7558C169.447 49.5784 169.474 58.2738 170.102 60.0708C171.322 63.5663 176.428 65.3925 184.988 65.3961C191.026 65.3986 194.289 64.6651 197.037 62.6872C199.093 61.2077 199.599 60.0842 199.599 56.9961V55.7234H187.233L187.194 57.9893C187.139 61.1668 186.929 61.4739 184.803 61.4888C182.784 61.5034 182.708 61.3525 182.702 57.2975L182.697 54.2443L199.599 54.1953V52.3566C199.599 48.6176 199.01 46.8516 197.282 45.4134C194.445 43.0511 187.868 41.8431 180.964 42.416ZM16.3915 42.8181C16.4267 42.9099 17.0982 45.1965 17.8841 47.8991C18.6706 50.602 19.5111 53.4788 19.7521 54.292C19.9936 55.1056 20.7763 57.7891 21.4924 60.2557C22.208 62.722 22.8228 64.8152 22.8585 64.907C22.9194 65.064 23.436 65.0741 31.4307 65.0741H39.9378L40.0932 64.43C40.2307 63.86 40.477 62.955 41.359 59.7783C41.4902 59.3062 41.8803 57.868 42.2257 56.5819C42.5717 55.2961 42.9382 53.9437 43.0406 53.5763C43.4144 52.2388 43.7115 51.1489 44.2649 49.0917C44.5751 47.9375 44.8817 46.8209 44.9468 46.6109C45.2261 45.7103 45.9375 42.9949 45.9375 42.8306C45.9375 42.6575 45.7333 42.6514 40.1798 42.6514C37.013 42.6514 34.4221 42.6652 34.4221 42.6822C34.4221 42.6992 34.3361 43.1555 34.2316 43.6964C34.1266 44.2373 33.989 44.9858 33.9265 45.3592C33.59 47.3662 33.4005 48.5625 33.0629 50.8095C32.572 54.0788 32.0497 57.2551 31.8302 58.3045C31.7205 58.83 31.5745 59.1707 31.5745 58.9004C31.5745 58.8458 31.458 58.2912 31.3162 57.6677C31.1745 57.0443 30.8658 55.6756 30.6306 54.6262C30.3954 53.5763 30.0431 52.009 29.8478 51.1433C29.652 50.2775 29.2619 48.5383 28.981 47.2788C28.1458 43.535 27.9762 42.8149 27.909 42.7311C27.7636 42.5495 16.3217 42.636 16.3915 42.8181ZM48.0123 53.7017C47.995 59.7804 47.9986 64.8261 48.0207 64.9139C48.0574 65.0616 48.5872 65.0741 54.7386 65.0741H61.4161L61.3531 42.6988L48.0443 42.6494L48.0123 53.7017ZM151.671 46.4483C152.282 46.7994 152.309 47.0673 152.271 52.4314C152.231 58.1079 152.247 58.0084 151.314 58.3713C150.28 58.773 149.058 58.5845 148.647 57.9598C148.336 57.4877 148.256 47.7813 148.558 47.1259C148.956 46.2626 150.691 45.8843 151.671 46.4483ZM185.472 46.3063C186.328 46.5373 186.66 47.5475 186.575 49.6642L186.536 50.6185H182.697L182.725 48.8672C182.757 46.7873 182.866 46.4972 183.688 46.3095C184.324 46.1639 184.941 46.1631 185.472 46.3063ZM118.247 56.8023C118.243 61.202 118.109 61.501 116.156 61.4884C114.327 61.4767 114.101 61.1842 114.101 58.8244C114.101 56.7595 114.281 56.3298 115.435 55.6453C116.222 55.178 118.022 54.3859 118.153 54.4486C118.206 54.4737 118.248 55.5328 118.247 56.8023ZM122.161 68.199C126.444 73.1804 128.046 78.1363 126.112 80.4238C125.645 80.9768 125.319 81.226 124.069 81.983C117.979 85.671 116.705 90.9122 120.433 96.9378C121.565 98.7664 123.836 101.257 124.151 101.014C124.19 100.984 124.153 100.303 124.07 99.5003C123.548 94.4788 125.136 91.2144 129.955 87.4017C132.189 85.6342 132.938 84.9064 133.641 83.8233C136.682 79.1356 132.884 73.4826 123.426 68.6177C121.953 67.86 121.836 67.8211 122.161 68.199ZM117.932 76.1192C108.331 81.1451 101.826 87.2941 100.599 92.5066C99.8597 95.6452 100.7 97.8553 104.065 101.619C112.556 111.115 112.289 114.132 102.338 121.077L101.347 121.768L102.09 121.704C115.608 120.529 123.618 117.23 123.631 112.83C123.638 110.608 122.428 108.767 117.832 104.004C114.567 100.622 112.735 98.1579 111.696 95.7508C109.045 89.6131 111.456 83.0907 119.147 75.5937C119.359 75.3869 119.196 75.4577 117.932 76.1192ZM91.7884 94.7211C85.8496 100.266 81.5771 106.647 81.5488 110.015C81.5089 114.812 84.1701 117.787 89.2747 118.651C95.2408 119.661 100.216 119.148 101.815 117.357C104.096 114.804 101.139 108.848 96.3963 106.441C94.1393 105.295 92.9896 103.859 92.2257 101.229C91.8477 99.9275 91.802 96.2269 92.1501 95.0383C92.4058 94.1636 92.3953 94.1543 91.7884 94.7211ZM130.631 106.679C127.2 106.928 127.222 108.015 130.749 112.401C133.931 116.357 134.383 117.635 133.406 119.918C131.388 124.636 122.943 126.514 103.638 126.539C87.7396 126.559 77.7268 124.58 72.6369 120.411C68.492 117.015 69.4575 113.355 75.8252 108.322C76.7046 107.626 77.3918 107.058 77.3519 107.058C76.7854 107.058 72.25 108.688 70.2182 109.621C60.2285 114.212 56.5351 121.556 61.4413 127.074C67.5076 133.897 90.8491 139.656 107.229 138.371C116.147 137.672 124.454 136.185 129.648 134.358C130.529 134.048 131.25 133.808 131.25 133.824C131.25 133.855 128.833 135.09 127.845 135.563C124.118 137.347 117.325 139.679 113.855 140.367C113.649 140.407 112.702 140.595 111.749 140.783C99.5594 143.193 82.279 141.378 71.3827 136.543C69.1063 135.533 66.6236 134.166 65.7489 133.441C64.901 132.738 64.8522 132.917 65.4554 134.526C68.3781 142.322 78.5872 147.983 92.9896 149.791C97.2232 150.323 99.1415 150.424 104.938 150.424C110.227 150.424 111.026 150.391 114.225 150.037C122.717 149.098 129.335 146.909 134.717 143.259C144.459 136.653 148.54 124.948 144.545 115.072C142.177 109.22 137.179 106.205 130.631 106.679ZM148.265 116.035C148.35 116.691 148.521 117.828 148.708 118.985C148.771 119.378 148.891 120.2 148.975 120.811L149.126 121.923L150.434 121.961C153.795 122.059 155.251 123.758 154.875 127.143C154.463 130.849 151.571 132.739 145.095 133.534C144.661 133.587 144.628 133.617 144.439 134.135C144.18 134.846 143.78 135.63 143.423 136.13C143.034 136.673 143.027 136.668 143.972 136.591C152.874 135.861 159.46 131.959 161.275 126.341C163.357 119.894 159.073 115.806 149.902 115.484L148.184 115.423L148.265 116.035ZM63.7675 143.001C56.1246 143.353 49.8787 145.373 47.7414 148.183C43.5451 153.702 50.1013 159.085 66.1201 163.275C68.3392 163.856 72.6012 164.818 74.4791 165.164C75.0577 165.27 75.9906 165.441 76.5523 165.545C80.7996 166.325 88.1428 167.283 92.6179 167.642C93.3329 167.7 94.1687 167.768 94.4753 167.794C114.598 169.517 137.332 166.432 150.977 160.127C164.909 153.69 159.9 147.083 138.308 143.412C137.661 143.302 136.888 143.169 136.59 143.117C136.293 143.064 136.04 143.034 136.027 143.049C136.016 143.064 135.941 143.277 135.861 143.522C134.25 148.424 124.966 151.839 111.129 152.621C91.9107 153.706 74.78 150.11 68.6522 143.705L67.9156 142.935L66.182 142.952C65.2286 142.962 64.1424 142.984 63.7675 143.001ZM130.486 153.247C131.551 156.803 126.978 159.882 118.741 161.155C111.105 162.334 98.2375 162.332 90.699 161.149C82.5762 159.875 78.235 157.377 78.235 153.976C78.235 152.961 78.2544 152.958 79.6771 153.781C81.302 154.72 82.7731 155.417 84.8174 156.214C93.534 159.615 103.635 160.617 113.915 159.1C119.075 158.338 125.512 155.969 129.145 153.493C130.408 152.633 130.308 152.651 130.486 153.247ZM141.062 172.942L147.495 172.993L149.371 172.194C152.594 170.819 157.807 168.576 157.861 168.54C157.89 168.521 155.375 168.506 152.274 168.506H146.636L141.062 172.942ZM121.282 169.713C121.078 169.731 120.392 169.792 119.759 169.849C115.246 170.252 113.92 171.285 113.916 174.398L113.915 175.089H111.191V178.62H113.915V196.94H126.916V178.62H130.012V175.093L124.518 175.042L124.55 174.425C124.615 173.222 124.801 173.144 127.746 173.099L130.012 173.065V169.651L125.833 169.665C123.535 169.673 121.487 169.694 121.282 169.713ZM59.0006 174.233C53.6177 174.537 49.0518 176.182 47.785 178.274C47.0689 179.456 47.0258 179.787 46.9639 184.61C46.873 191.65 47.2017 192.964 49.4897 194.715C53.6886 197.927 66.5143 198.292 72.1833 195.361C75.0934 193.857 76.1497 191.961 76.1497 188.243V187.78H64.5309L64.4899 189.951C64.4416 192.507 64.3073 192.892 63.3476 193.227C61.8707 193.744 60.3976 193.162 60.0532 191.925C59.8432 191.171 59.9419 179.149 60.1613 178.736C60.4658 178.163 61.7153 177.891 62.705 178.182C63.6909 178.472 63.8914 179.015 63.8914 181.392V183.009H76.1497V182.6C76.1497 181.993 75.8168 180.082 75.6037 179.466C74.3348 175.799 67.7922 173.737 59.0006 174.233ZM92.1228 174.199C87.5033 174.353 83.1584 175.53 81.2406 177.147C80.0058 178.188 79.4971 179.555 79.4944 181.84L79.4929 183.2H91.5894L91.665 181.172C91.7679 178.411 91.8608 178.232 93.2673 178.084C95.1158 177.888 95.8372 178.665 95.8372 180.853C95.8372 182.929 95.6009 183.075 90.5132 184.15C79.7087 186.431 79.5076 186.556 79.4971 190.994C79.4882 194.918 80.5051 196.102 84.5938 196.926C88.8998 197.795 93.2778 197.205 95.5589 195.449L96.2089 194.948V196.94H108.838L108.837 189.712C108.835 178.979 108.68 178.056 106.651 176.623C104.054 174.789 99.12 173.966 92.1228 174.199ZM144.189 174.229C137.513 174.651 133.622 176.453 132.545 179.622C132.02 181.168 131.965 189.759 132.469 191.567C133.552 195.45 139.492 197.55 148.647 197.286C153.936 197.134 157.09 196.338 159.559 194.531C161.599 193.037 162.077 191.95 162.08 188.805L162.081 187.589H149.715L149.676 189.855C149.622 192.997 149.374 193.362 147.285 193.362C145.281 193.362 145.203 193.212 145.139 189.236L145.088 186.159L162.019 186.11L162.056 184.345C162.138 180.477 161.495 178.636 159.538 177.131C156.713 174.959 150.679 173.818 144.189 174.229ZM148.022 178.182C148.818 178.439 149.139 179.479 149.057 181.53L149.018 182.484H145.18L145.207 180.733C145.239 178.653 145.348 178.363 146.171 178.175C146.852 178.019 147.524 178.022 148.022 178.182ZM95.6818 192.542C95.2707 193.633 92.6767 193.737 92.0105 192.689C91.5973 192.038 91.591 189.708 91.9994 188.618C92.2425 187.969 92.8898 187.524 94.8339 186.67L95.7752 186.256L95.8078 189.189C95.8314 191.35 95.7983 192.232 95.6818 192.542Z"/>
</mask>
<path fill-rule="evenodd" clip-rule="evenodd" d="M0 0.143217C0 0.27025 11.7353 0.286433 104.876 0.286433H209.752V228.714H104.876C11.7353 228.714 0 228.73 0 228.857C0 228.984 11.749 229 105 229H210V0H105C11.749 0 0 0.0161826 0 0.143217ZM22.7829 41.4106H27.2407V38.3642C27.2407 35.029 27.2428 35.0181 27.9678 35.0181C28.6015 35.0181 28.6025 35.0237 28.6025 38.329V41.4106H33.0603L33.0572 38.3812C33.054 35.188 32.9999 34.7547 32.56 34.3938C31.6585 33.6543 29.1989 33.4888 27.7253 34.0681L27.2407 34.2583V32.1553H22.7829V41.4106ZM16.1584 34.0159L15.2297 34.0754V35.2086H16.2204V37.7788C16.2204 41.3746 16.1842 41.3382 19.8424 41.3969L22.04 41.4321V40.2879L21.3733 40.2236C20.5296 40.1423 20.5543 40.2277 20.5543 37.3912V35.2086H21.7922V34.0742L20.6162 34.0159L20.5422 32.8233H16.2325L16.1584 34.0159ZM37.9969 33.7781C35.0196 34.1418 34.5056 34.7563 34.5681 37.8755C34.6206 40.4813 34.9072 40.8507 37.2482 41.3309C40.9836 42.0976 44.4055 41.1181 44.6113 39.2227C44.7226 38.2008 44.8555 38.2619 42.5313 38.2619H40.5142L40.4707 39.1285C40.4234 40.0747 40.2806 40.2673 39.6301 40.2645C38.9865 40.2612 38.9419 40.1747 38.9419 38.9298V37.7776H41.6661C43.1644 37.7776 44.468 37.7408 44.5631 37.6955C44.8539 37.5567 44.6413 35.8567 44.2554 35.239C43.5498 34.1094 40.7096 33.4463 37.9969 33.7781ZM40.121 35.2628C40.1872 35.3971 40.2418 35.7406 40.2418 36.0258V36.5445H38.8799V35.966C38.8799 35.2074 39.0175 35.0181 39.5682 35.0181C39.9178 35.0181 40.0234 35.0646 40.121 35.2628ZM48.0422 41.3155H61.415V37.7849H48.0422V41.3155ZM66.1201 65.0741H79.4929V37.7849H66.1201V65.0741ZM84.3013 37.8804C84.2788 37.933 84.2746 44.0731 84.2919 51.5248L84.3234 65.0741H97.5707V37.7849H90.9568C86.6586 37.7849 84.3281 37.8185 84.3013 37.8804ZM113.482 42.3682C110.838 42.5741 108.724 42.9613 106.937 43.567C102.996 44.9024 101.781 46.4904 101.781 50.3066V51.3358L113.977 51.2865L114.044 49.1395C114.131 46.3435 114.216 46.2205 116.055 46.2367C117.787 46.2521 118.475 47.4435 118.123 49.8183C117.923 51.1736 117.677 51.2715 111.005 52.6596C102.263 54.4785 101.634 54.9579 101.815 59.6691C101.931 62.7078 102.698 63.8495 105.124 64.5927C109.75 66.0099 114.959 65.6466 117.693 63.7164C118.135 63.4041 118.503 63.2062 118.511 63.2766C118.519 63.347 118.515 63.6492 118.5 63.9486C118.486 64.248 118.511 64.6238 118.557 64.7836L118.64 65.0741H131.126L131.126 57.6078C131.125 46.9847 131.005 46.2484 129.043 44.8312C126.352 42.8877 119.908 41.8678 113.482 42.3682ZM141.775 42.4147C138.282 42.827 136.441 43.9541 135.625 46.1817C135.321 47.0106 135.276 57.3376 135.571 58.3951C136.346 61.1668 139.354 62.4582 144.994 62.4388C147.09 62.4315 147.41 62.4011 149.204 62.037C149.887 61.8987 150.93 61.5605 151.786 61.1996L152.573 60.8682L152.526 62.3748C152.456 64.5652 152.096 64.9718 150.221 64.9766C148.945 64.9803 148.195 64.6044 148.017 63.8717L147.938 63.5473H135.341L135.413 64.0008C135.985 67.601 140.55 69.0518 150.69 68.8564C157.47 68.7257 161.283 67.8717 163.793 65.9205C165.354 64.7072 165.3 65.1728 165.3 52.7919V42.6514H153.276L153.035 43.0807C152.903 43.3169 152.684 43.7073 152.549 43.9485L152.303 44.387L151.817 44.0905C149.458 42.6502 145.448 41.9811 141.775 42.4147ZM180.964 42.416C174.704 42.9354 171.096 44.7026 170.064 47.7558C169.447 49.5784 169.474 58.2738 170.102 60.0708C171.322 63.5663 176.428 65.3925 184.988 65.3961C191.026 65.3986 194.289 64.6651 197.037 62.6872C199.093 61.2077 199.599 60.0842 199.599 56.9961V55.7234H187.233L187.194 57.9893C187.139 61.1668 186.929 61.4739 184.803 61.4888C182.784 61.5034 182.708 61.3525 182.702 57.2975L182.697 54.2443L199.599 54.1953V52.3566C199.599 48.6176 199.01 46.8516 197.282 45.4134C194.445 43.0511 187.868 41.8431 180.964 42.416ZM16.3915 42.8181C16.4267 42.9099 17.0982 45.1965 17.8841 47.8991C18.6706 50.602 19.5111 53.4788 19.7521 54.292C19.9936 55.1056 20.7763 57.7891 21.4924 60.2557C22.208 62.722 22.8228 64.8152 22.8585 64.907C22.9194 65.064 23.436 65.0741 31.4307 65.0741H39.9378L40.0932 64.43C40.2307 63.86 40.477 62.955 41.359 59.7783C41.4902 59.3062 41.8803 57.868 42.2257 56.5819C42.5717 55.2961 42.9382 53.9437 43.0406 53.5763C43.4144 52.2388 43.7115 51.1489 44.2649 49.0917C44.5751 47.9375 44.8817 46.8209 44.9468 46.6109C45.2261 45.7103 45.9375 42.9949 45.9375 42.8306C45.9375 42.6575 45.7333 42.6514 40.1798 42.6514C37.013 42.6514 34.4221 42.6652 34.4221 42.6822C34.4221 42.6992 34.3361 43.1555 34.2316 43.6964C34.1266 44.2373 33.989 44.9858 33.9265 45.3592C33.59 47.3662 33.4005 48.5625 33.0629 50.8095C32.572 54.0788 32.0497 57.2551 31.8302 58.3045C31.7205 58.83 31.5745 59.1707 31.5745 58.9004C31.5745 58.8458 31.458 58.2912 31.3162 57.6677C31.1745 57.0443 30.8658 55.6756 30.6306 54.6262C30.3954 53.5763 30.0431 52.009 29.8478 51.1433C29.652 50.2775 29.2619 48.5383 28.981 47.2788C28.1458 43.535 27.9762 42.8149 27.909 42.7311C27.7636 42.5495 16.3217 42.636 16.3915 42.8181ZM48.0123 53.7017C47.995 59.7804 47.9986 64.8261 48.0207 64.9139C48.0574 65.0616 48.5872 65.0741 54.7386 65.0741H61.4161L61.3531 42.6988L48.0443 42.6494L48.0123 53.7017ZM151.671 46.4483C152.282 46.7994 152.309 47.0673 152.271 52.4314C152.231 58.1079 152.247 58.0084 151.314 58.3713C150.28 58.773 149.058 58.5845 148.647 57.9598C148.336 57.4877 148.256 47.7813 148.558 47.1259C148.956 46.2626 150.691 45.8843 151.671 46.4483ZM185.472 46.3063C186.328 46.5373 186.66 47.5475 186.575 49.6642L186.536 50.6185H182.697L182.725 48.8672C182.757 46.7873 182.866 46.4972 183.688 46.3095C184.324 46.1639 184.941 46.1631 185.472 46.3063ZM118.247 56.8023C118.243 61.202 118.109 61.501 116.156 61.4884C114.327 61.4767 114.101 61.1842 114.101 58.8244C114.101 56.7595 114.281 56.3298 115.435 55.6453C116.222 55.178 118.022 54.3859 118.153 54.4486C118.206 54.4737 118.248 55.5328 118.247 56.8023ZM122.161 68.199C126.444 73.1804 128.046 78.1363 126.112 80.4238C125.645 80.9768 125.319 81.226 124.069 81.983C117.979 85.671 116.705 90.9122 120.433 96.9378C121.565 98.7664 123.836 101.257 124.151 101.014C124.19 100.984 124.153 100.303 124.07 99.5003C123.548 94.4788 125.136 91.2144 129.955 87.4017C132.189 85.6342 132.938 84.9064 133.641 83.8233C136.682 79.1356 132.884 73.4826 123.426 68.6177C121.953 67.86 121.836 67.8211 122.161 68.199ZM117.932 76.1192C108.331 81.1451 101.826 87.2941 100.599 92.5066C99.8597 95.6452 100.7 97.8553 104.065 101.619C112.556 111.115 112.289 114.132 102.338 121.077L101.347 121.768L102.09 121.704C115.608 120.529 123.618 117.23 123.631 112.83C123.638 110.608 122.428 108.767 117.832 104.004C114.567 100.622 112.735 98.1579 111.696 95.7508C109.045 89.6131 111.456 83.0907 119.147 75.5937C119.359 75.3869 119.196 75.4577 117.932 76.1192ZM91.7884 94.7211C85.8496 100.266 81.5771 106.647 81.5488 110.015C81.5089 114.812 84.1701 117.787 89.2747 118.651C95.2408 119.661 100.216 119.148 101.815 117.357C104.096 114.804 101.139 108.848 96.3963 106.441C94.1393 105.295 92.9896 103.859 92.2257 101.229C91.8477 99.9275 91.802 96.2269 92.1501 95.0383C92.4058 94.1636 92.3953 94.1543 91.7884 94.7211ZM130.631 106.679C127.2 106.928 127.222 108.015 130.749 112.401C133.931 116.357 134.383 117.635 133.406 119.918C131.388 124.636 122.943 126.514 103.638 126.539C87.7396 126.559 77.7268 124.58 72.6369 120.411C68.492 117.015 69.4575 113.355 75.8252 108.322C76.7046 107.626 77.3918 107.058 77.3519 107.058C76.7854 107.058 72.25 108.688 70.2182 109.621C60.2285 114.212 56.5351 121.556 61.4413 127.074C67.5076 133.897 90.8491 139.656 107.229 138.371C116.147 137.672 124.454 136.185 129.648 134.358C130.529 134.048 131.25 133.808 131.25 133.824C131.25 133.855 128.833 135.09 127.845 135.563C124.118 137.347 117.325 139.679 113.855 140.367C113.649 140.407 112.702 140.595 111.749 140.783C99.5594 143.193 82.279 141.378 71.3827 136.543C69.1063 135.533 66.6236 134.166 65.7489 133.441C64.901 132.738 64.8522 132.917 65.4554 134.526C68.3781 142.322 78.5872 147.983 92.9896 149.791C97.2232 150.323 99.1415 150.424 104.938 150.424C110.227 150.424 111.026 150.391 114.225 150.037C122.717 149.098 129.335 146.909 134.717 143.259C144.459 136.653 148.54 124.948 144.545 115.072C142.177 109.22 137.179 106.205 130.631 106.679ZM148.265 116.035C148.35 116.691 148.521 117.828 148.708 118.985C148.771 119.378 148.891 120.2 148.975 120.811L149.126 121.923L150.434 121.961C153.795 122.059 155.251 123.758 154.875 127.143C154.463 130.849 151.571 132.739 145.095 133.534C144.661 133.587 144.628 133.617 144.439 134.135C144.18 134.846 143.78 135.63 143.423 136.13C143.034 136.673 143.027 136.668 143.972 136.591C152.874 135.861 159.46 131.959 161.275 126.341C163.357 119.894 159.073 115.806 149.902 115.484L148.184 115.423L148.265 116.035ZM63.7675 143.001C56.1246 143.353 49.8787 145.373 47.7414 148.183C43.5451 153.702 50.1013 159.085 66.1201 163.275C68.3392 163.856 72.6012 164.818 74.4791 165.164C75.0577 165.27 75.9906 165.441 76.5523 165.545C80.7996 166.325 88.1428 167.283 92.6179 167.642C93.3329 167.7 94.1687 167.768 94.4753 167.794C114.598 169.517 137.332 166.432 150.977 160.127C164.909 153.69 159.9 147.083 138.308 143.412C137.661 143.302 136.888 143.169 136.59 143.117C136.293 143.064 136.04 143.034 136.027 143.049C136.016 143.064 135.941 143.277 135.861 143.522C134.25 148.424 124.966 151.839 111.129 152.621C91.9107 153.706 74.78 150.11 68.6522 143.705L67.9156 142.935L66.182 142.952C65.2286 142.962 64.1424 142.984 63.7675 143.001ZM130.486 153.247C131.551 156.803 126.978 159.882 118.741 161.155C111.105 162.334 98.2375 162.332 90.699 161.149C82.5762 159.875 78.235 157.377 78.235 153.976C78.235 152.961 78.2544 152.958 79.6771 153.781C81.302 154.72 82.7731 155.417 84.8174 156.214C93.534 159.615 103.635 160.617 113.915 159.1C119.075 158.338 125.512 155.969 129.145 153.493C130.408 152.633 130.308 152.651 130.486 153.247ZM141.062 172.942L147.495 172.993L149.371 172.194C152.594 170.819 157.807 168.576 157.861 168.54C157.89 168.521 155.375 168.506 152.274 168.506H146.636L141.062 172.942ZM121.282 169.713C121.078 169.731 120.392 169.792 119.759 169.849C115.246 170.252 113.92 171.285 113.916 174.398L113.915 175.089H111.191V178.62H113.915V196.94H126.916V178.62H130.012V175.093L124.518 175.042L124.55 174.425C124.615 173.222 124.801 173.144 127.746 173.099L130.012 173.065V169.651L125.833 169.665C123.535 169.673 121.487 169.694 121.282 169.713ZM59.0006 174.233C53.6177 174.537 49.0518 176.182 47.785 178.274C47.0689 179.456 47.0258 179.787 46.9639 184.61C46.873 191.65 47.2017 192.964 49.4897 194.715C53.6886 197.927 66.5143 198.292 72.1833 195.361C75.0934 193.857 76.1497 191.961 76.1497 188.243V187.78H64.5309L64.4899 189.951C64.4416 192.507 64.3073 192.892 63.3476 193.227C61.8707 193.744 60.3976 193.162 60.0532 191.925C59.8432 191.171 59.9419 179.149 60.1613 178.736C60.4658 178.163 61.7153 177.891 62.705 178.182C63.6909 178.472 63.8914 179.015 63.8914 181.392V183.009H76.1497V182.6C76.1497 181.993 75.8168 180.082 75.6037 179.466C74.3348 175.799 67.7922 173.737 59.0006 174.233ZM92.1228 174.199C87.5033 174.353 83.1584 175.53 81.2406 177.147C80.0058 178.188 79.4971 179.555 79.4944 181.84L79.4929 183.2H91.5894L91.665 181.172C91.7679 178.411 91.8608 178.232 93.2673 178.084C95.1158 177.888 95.8372 178.665 95.8372 180.853C95.8372 182.929 95.6009 183.075 90.5132 184.15C79.7087 186.431 79.5076 186.556 79.4971 190.994C79.4882 194.918 80.5051 196.102 84.5938 196.926C88.8998 197.795 93.2778 197.205 95.5589 195.449L96.2089 194.948V196.94H108.838L108.837 189.712C108.835 178.979 108.68 178.056 106.651 176.623C104.054 174.789 99.12 173.966 92.1228 174.199ZM144.189 174.229C137.513 174.651 133.622 176.453 132.545 179.622C132.02 181.168 131.965 189.759 132.469 191.567C133.552 195.45 139.492 197.55 148.647 197.286C153.936 197.134 157.09 196.338 159.559 194.531C161.599 193.037 162.077 191.95 162.08 188.805L162.081 187.589H149.715L149.676 189.855C149.622 192.997 149.374 193.362 147.285 193.362C145.281 193.362 145.203 193.212 145.139 189.236L145.088 186.159L162.019 186.11L162.056 184.345C162.138 180.477 161.495 178.636 159.538 177.131C156.713 174.959 150.679 173.818 144.189 174.229ZM148.022 178.182C148.818 178.439 149.139 179.479 149.057 181.53L149.018 182.484H145.18L145.207 180.733C145.239 178.653 145.348 178.363 146.171 178.175C146.852 178.019 147.524 178.022 148.022 178.182ZM95.6818 192.542C95.2707 193.633 92.6767 193.737 92.0105 192.689C91.5973 192.038 91.591 189.708 91.9994 188.618C92.2425 187.969 92.8898 187.524 94.8339 186.67L95.7752 186.256L95.8078 189.189C95.8314 191.35 95.7983 192.232 95.6818 192.542Z" fill="black" stroke="white" stroke-width="0.4" mask="url(#path-1-inside-1_15_30)"/>
</svg>
