<svg width="186" height="218" viewBox="0 0 186 218" fill="none" xmlns="http://www.w3.org/2000/svg">
<path fill-rule="evenodd" clip-rule="evenodd" d="M8.5532 13.1248H13.011V9.13393C13.011 4.76467 13.0131 4.75039 13.7381 4.75039C14.3718 4.75039 14.3728 4.75773 14.3728 9.08781V13.1248H18.8306L18.8275 9.1562C18.8243 4.97297 18.7702 4.40533 18.3303 3.93253C17.4288 2.96376 14.9692 2.74694 13.4956 3.50585L13.011 3.75502V1H8.5532V13.1248ZM1.9287 3.43747L1 3.51542V4.99995H1.9907V8.36703C1.9907 13.0777 1.9545 13.03 5.6127 13.1069L7.8103 13.153V11.6541L7.1436 11.5698C6.2999 11.4633 6.3246 11.5752 6.3246 7.85926V4.99995H7.5625V3.51384L6.3865 3.43747L6.3125 1.87511H2.0028L1.9287 3.43747ZM23.7672 3.12594C20.7899 3.6024 20.2759 4.40742 20.3384 8.49371C20.3909 11.9074 20.6775 12.3914 23.0185 13.0204C26.7539 14.0248 30.1758 12.7417 30.3816 10.2586C30.4929 8.91987 30.6258 8.99992 28.3016 8.99992H26.2845L26.241 10.1352C26.1937 11.3748 26.0509 11.6271 25.4004 11.6234C24.7568 11.6191 24.7122 11.5058 24.7122 9.87489V8.36546H27.4364C28.9347 8.36546 30.2383 8.31725 30.3334 8.2579C30.6242 8.07607 30.4116 5.84899 30.0257 5.03978C29.3201 3.55995 26.4799 2.69127 23.7672 3.12594ZM25.8913 5.07096C25.9575 5.2469 26.0121 5.6969 26.0121 6.07052V6.75004H24.6502V5.99218C24.6502 4.99838 24.7878 4.75039 25.3385 4.75039C25.6881 4.75039 25.7937 4.81131 25.8913 5.07096ZM33.8125 13.0003H47.1853V8.37502H33.8125V13.0003ZM51.8904 44.1251H65.2632V8.37502H51.8904V44.1251ZM70.0716 8.50013C70.0491 8.56904 70.0449 16.6128 70.0622 26.3749L70.0937 44.1251H83.341V8.37502H76.7271C72.4289 8.37502 70.0984 8.41904 70.0716 8.50013ZM99.2523 14.3793C96.6083 14.6491 94.4943 15.1563 92.7073 15.9498C88.7663 17.6993 87.5513 19.7796 87.5513 24.779V26.1273L99.7473 26.0627L99.8143 23.25C99.9013 19.5872 99.9863 19.426 101.825 19.4472C103.557 19.4674 104.245 21.0282 103.893 24.1393C103.693 25.9148 103.447 26.0431 96.7753 27.8615C88.0333 30.2444 87.4043 30.8724 87.5853 37.0443C87.7013 41.0251 88.4683 42.5208 90.8943 43.4944C95.5203 45.351 100.729 44.8751 103.463 42.3464C103.905 41.9373 104.273 41.678 104.281 41.7703C104.289 41.8625 104.285 42.2584 104.27 42.6506C104.256 43.0428 104.281 43.5352 104.327 43.7445L104.41 44.1251H116.896V34.3439C116.895 20.4272 116.775 19.4626 114.813 17.606C112.122 15.0599 105.678 13.7238 99.2523 14.3793ZM127.545 14.4403C124.052 14.9804 122.211 16.4569 121.395 19.3752C121.091 20.4611 121.046 33.9899 121.341 35.3753C122.116 39.0063 125.124 40.6981 130.764 40.6727C132.86 40.6631 133.18 40.6233 134.974 40.1463C135.657 39.9652 136.7 39.5221 137.556 39.0493L138.343 38.6152L138.296 40.5889C138.226 43.4584 137.866 43.991 135.991 43.9973C134.715 44.0022 133.965 43.5097 133.787 42.5499L133.708 42.1249H121.111L121.183 42.719C121.755 47.4354 126.32 49.336 136.46 49.08C143.24 48.9088 147.053 47.79 149.563 45.2339C151.124 43.6444 151.07 44.2544 151.07 28.0349V14.7504H139.046L138.805 15.3128C138.673 15.6222 138.454 16.1336 138.319 16.4496L138.073 17.0241L137.587 16.6356C135.228 14.7488 131.218 13.8722 127.545 14.4403ZM166.734 14.442C160.474 15.1224 156.866 17.4375 155.834 21.4373C155.217 23.825 155.244 35.2164 155.872 37.5705C157.092 42.1498 162.198 44.5422 170.758 44.5469C176.796 44.5502 180.059 43.5893 182.807 40.9981C184.863 39.0599 185.369 37.5881 185.369 33.5425V31.8752H173.003L172.964 34.8437C172.909 39.0063 172.699 39.4086 170.573 39.4282C168.554 39.4473 168.478 39.2496 168.472 33.9374L168.467 29.9376L185.369 29.8734V27.4646C185.369 22.5663 184.78 20.2528 183.052 18.3687C180.215 15.274 173.638 13.6914 166.734 14.442ZM2.1618 14.9687C2.197 15.089 2.8685 18.0845 3.6544 21.6251C4.4409 25.166 5.2814 28.9347 5.5224 30C5.7639 31.0659 6.5466 34.5814 7.2627 37.8128C7.9783 41.0437 8.5931 43.7859 8.6288 43.9062C8.6897 44.1118 9.2063 44.1251 17.201 44.1251H25.7081L25.8635 43.2813C26.001 42.5345 26.2473 41.349 27.1293 37.1873C27.2605 36.5689 27.6506 34.6848 27.996 32.9999C28.342 31.3155 28.7085 29.5438 28.8109 29.0624C29.1847 27.3103 29.4818 25.8824 30.0352 23.1874C30.3454 21.6754 30.652 20.2126 30.7171 19.9375C30.9964 18.7576 31.7078 15.2004 31.7078 14.9851C31.7078 14.7583 31.5036 14.7504 25.9501 14.7504C22.7833 14.7504 20.1924 14.7684 20.1924 14.7907C20.1924 14.813 20.1064 15.4107 20.0019 16.1193C19.8969 16.8279 19.7593 17.8085 19.6968 18.2977C19.3603 20.9269 19.1708 22.4942 18.8332 25.4378C18.3423 29.7207 17.82 33.8818 17.6005 35.2566C17.4908 35.945 17.3448 36.3914 17.3448 36.0372C17.3448 35.9657 17.2283 35.2392 17.0865 34.4224C16.9448 33.6057 16.6361 31.8126 16.4009 30.4379C16.1657 29.0625 15.8134 27.0092 15.6181 25.8751C15.4223 24.7409 15.0322 22.4624 14.7513 20.8124C13.9161 15.9079 13.7465 14.9645 13.6793 14.8548C13.5339 14.6169 2.092 14.7302 2.1618 14.9687ZM33.7826 29.2267C33.7653 37.1901 33.7689 43.8002 33.791 43.9152C33.8277 44.1087 34.3575 44.1251 40.5089 44.1251H47.1864L47.1234 14.8124L33.8146 14.7477L33.7826 29.2267ZM137.441 19.7245C138.052 20.1844 138.079 20.5354 138.041 27.5626C138.001 34.999 138.017 34.8687 137.084 35.3441C136.05 35.8704 134.828 35.6234 134.417 34.805C134.106 34.1866 134.026 21.4707 134.328 20.6121C134.726 19.4812 136.461 18.9856 137.441 19.7245ZM171.242 19.5384C172.098 19.841 172.43 21.1645 172.345 23.9374L172.306 25.1876H168.467L168.495 22.8933C168.527 20.1686 168.636 19.7885 169.458 19.5426C170.094 19.3519 170.711 19.3508 171.242 19.5384ZM104.017 33.2887C104.013 39.0525 103.879 39.4441 101.926 39.4276C100.097 39.4123 99.8713 39.0291 99.8713 35.9377C99.8713 33.2326 100.051 32.6697 101.205 31.7729C101.992 31.1607 103.792 30.1231 103.923 30.2052C103.976 30.2381 104.018 31.6256 104.017 33.2887ZM107.931 48.2188C112.214 54.7447 113.816 61.2371 111.882 64.2338C111.415 64.9583 111.089 65.2848 109.839 66.2765C103.749 71.1079 102.475 77.9741 106.203 85.8679C107.335 88.2635 109.606 91.5262 109.921 91.2079C109.96 91.1686 109.923 90.2765 109.84 89.2249C109.318 82.6465 110.906 78.37 115.725 73.3752C117.959 71.0597 118.708 70.1062 119.411 68.6873C122.452 62.5462 118.654 55.1406 109.196 48.7673C107.723 47.7747 107.606 47.7238 107.931 48.2188ZM103.702 58.5946C94.1013 65.1788 87.5963 73.2342 86.3693 80.0628C85.63 84.1745 86.4703 87.0699 89.8353 92.0005C98.3263 104.441 98.0593 108.393 88.1083 117.491L87.1173 118.397L87.8603 118.313C101.378 116.773 109.388 112.452 109.401 106.687C109.408 103.776 108.198 101.365 103.602 95.1249C100.337 90.6944 98.5053 87.4663 97.4663 84.3129C94.8153 76.2722 97.2263 67.7276 104.917 57.9062C105.129 57.6353 104.966 57.728 103.702 58.5946ZM77.5587 82.9639C71.6199 90.228 67.3474 98.5874 67.3191 103C67.2792 109.284 69.9404 113.181 75.045 114.313C81.0111 115.636 85.9863 114.964 87.5853 112.618C89.8663 109.273 86.9093 101.471 82.1666 98.3175C79.9096 96.8162 78.7599 94.935 77.996 91.4896C77.618 89.7845 77.5723 84.9366 77.9204 83.3795C78.1761 82.2336 78.1656 82.2214 77.5587 82.9639ZM116.401 98.6293C112.97 98.9555 112.992 100.38 116.519 106.125C119.701 111.308 120.153 112.982 119.176 115.973C117.158 122.154 108.713 124.614 89.4083 124.647C73.5099 124.673 63.4971 122.08 58.4072 116.619C54.2623 112.17 55.2278 107.375 61.5955 100.782C62.4749 99.8699 63.1621 99.1258 63.1222 99.1258C62.5557 99.1258 58.0203 101.261 55.9885 102.483C45.9988 108.498 42.3054 118.119 47.2116 125.348C53.2779 134.286 76.6194 141.831 92.9993 140.147C101.917 139.231 110.224 137.283 115.418 134.89C116.299 134.484 117.02 134.169 117.02 134.19C117.02 134.231 114.603 135.849 113.615 136.469C109.888 138.806 103.095 141.861 99.6253 142.762C99.4193 142.814 98.4723 143.061 97.5193 143.307C85.3297 146.464 68.0493 144.087 57.153 137.752C54.8766 136.429 52.3939 134.638 51.5192 133.689C50.6713 132.768 50.6225 133.002 51.2257 135.11C54.1484 145.323 64.3575 152.739 78.7599 155.108C82.9935 155.805 84.9118 155.937 90.7083 155.937C95.9973 155.937 96.7963 155.894 99.9953 155.43C108.487 154.2 115.105 151.332 120.487 146.551C130.229 137.897 134.31 122.562 130.315 109.624C127.947 101.958 122.949 98.0083 116.401 98.6293ZM134.035 110.886C134.12 111.745 134.291 113.235 134.478 114.751C134.541 115.266 134.661 116.342 134.745 117.143L134.896 118.6L136.204 118.649C139.565 118.778 141.021 121.004 140.645 125.438C140.233 130.293 137.341 132.769 130.865 133.811C130.431 133.88 130.398 133.919 130.209 134.598C129.95 135.529 129.55 136.556 129.193 137.211C128.804 137.923 128.797 137.916 129.742 137.815C138.644 136.859 145.23 131.747 147.045 124.387C149.127 115.942 144.843 110.586 135.672 110.164L133.954 110.084L134.035 110.886ZM49.5378 146.213C41.8949 146.674 35.649 149.32 33.5117 153.001C29.3154 160.231 35.8716 167.283 51.8904 172.773C54.1095 173.534 58.3715 174.794 60.2494 175.247C60.828 175.386 61.7609 175.61 62.3226 175.746C66.5699 176.768 73.9131 178.023 78.3882 178.493C79.1032 178.569 79.939 178.659 80.2456 178.693C100.368 180.95 123.102 176.908 136.747 168.649C150.679 160.216 145.67 151.56 124.078 146.751C123.431 146.607 122.658 146.433 122.36 146.365C122.063 146.295 121.81 146.256 121.797 146.276C121.786 146.295 121.711 146.574 121.631 146.895C120.02 153.317 110.736 157.791 96.8993 158.815C77.681 160.237 60.5503 155.526 54.4225 147.135L53.6859 146.126L51.9523 146.149C50.9989 146.162 49.9127 146.19 49.5378 146.213ZM116.256 159.635C117.321 164.294 112.748 168.328 104.511 169.995C96.8753 171.54 84.0078 171.537 76.4693 169.987C68.3465 168.318 64.0053 165.046 64.0053 160.59C64.0053 159.261 64.0247 159.257 65.4474 160.335C67.0723 161.565 68.5434 162.478 70.5877 163.522C79.3043 167.978 89.4053 169.29 99.6853 167.303C104.845 166.305 111.282 163.201 114.915 159.958C116.178 158.831 116.078 158.855 116.256 159.635ZM126.832 185.437L133.265 185.504L135.141 184.457C138.364 182.656 143.577 179.717 143.631 179.67C143.66 179.645 141.145 179.625 138.044 179.625H132.406L126.832 185.437ZM107.052 181.207C106.848 181.23 106.162 181.31 105.529 181.385C101.016 181.913 99.6903 183.266 99.6863 187.344L99.6853 188.249H96.9613V192.875H99.6853V216.875H112.686V192.875H115.782V188.255L110.288 188.188L110.32 187.38C110.385 185.804 110.571 185.701 113.516 185.642L115.782 185.598V181.125L111.603 181.144C109.305 181.154 107.257 181.182 107.052 181.207ZM44.7709 187.128C39.388 187.526 34.8221 189.681 33.5553 192.422C32.8392 193.97 32.7961 194.404 32.7342 200.722C32.6433 209.945 32.972 211.666 35.26 213.96C39.4589 218.168 52.2846 218.646 57.9536 214.807C60.8637 212.836 61.92 210.352 61.92 205.482V204.875H50.3012L50.2602 207.719C50.2119 211.068 50.0776 211.572 49.1179 212.011C47.641 212.688 46.1679 211.926 45.8235 210.305C45.6135 209.318 45.7122 193.568 45.9316 193.027C46.2361 192.276 47.4856 191.92 48.4753 192.301C49.4612 192.681 49.6617 193.393 49.6617 196.507V198.625H61.92V198.089C61.92 197.294 61.5871 194.79 61.374 193.983C60.1051 189.18 53.5625 186.478 44.7709 187.128ZM77.8931 187.083C73.2736 187.285 68.9287 188.827 67.0109 190.945C65.7761 192.309 65.2674 194.1 65.2647 197.093L65.2632 198.875H77.3597L77.4353 196.218C77.5382 192.601 77.6311 192.367 79.0376 192.173C80.8861 191.916 81.6075 192.934 81.6075 195.8C81.6075 198.52 81.3712 198.711 76.2835 200.12C65.479 203.108 65.2779 203.272 65.2674 209.086C65.2585 214.226 66.2754 215.777 70.3641 216.857C74.6701 217.995 79.0481 217.222 81.3292 214.922L81.9792 214.266V216.875H94.6083L94.6073 207.406C94.6053 193.345 94.4503 192.136 92.4213 190.259C89.8243 187.856 84.8903 186.778 77.8931 187.083ZM129.959 187.123C123.283 187.676 119.392 190.036 118.315 194.188C117.79 196.213 117.735 207.468 118.239 209.836C119.322 214.923 125.262 217.674 134.417 217.328C139.706 217.129 142.86 216.087 145.329 213.719C147.369 211.762 147.847 210.338 147.85 206.218L147.851 204.625H135.485L135.446 207.593C135.392 211.71 135.144 212.188 133.055 212.188C131.051 212.188 130.973 211.991 130.909 206.783L130.858 202.752L147.789 202.687L147.826 200.375C147.908 195.308 147.265 192.896 145.308 190.924C142.483 188.079 136.449 186.584 129.959 187.123ZM133.792 192.301C134.588 192.638 134.909 194 134.827 196.687L134.788 197.937H130.95L130.977 195.643C131.009 192.918 131.118 192.538 131.941 192.292C132.622 192.088 133.294 192.092 133.792 192.301ZM81.4521 211.114C81.041 212.543 78.447 212.679 77.7808 211.306C77.3676 210.453 77.3613 207.401 77.7697 205.973C78.0128 205.123 78.6601 204.54 80.6042 203.421L81.5455 202.879L81.5781 206.721C81.6017 209.552 81.5686 210.707 81.4521 211.114Z" fill="black" stroke="white" stroke-width="0.4"/>
</svg>
